<svg viewBox="0 0 56 56" fill="none" xmlns="http://www.w3.org/2000/svg">
    <path fill-rule="evenodd" clip-rule="evenodd" d="M9.86855 23.3775C9.8335 24.1986 9.8335 25.1796 9.8335 26.4151V33.6262C9.8335 39.6543 9.8335 42.6684 11.3686 44.7814C11.8644 45.4637 12.4645 46.0638 13.1469 46.5596C15.2599 48.0948 18.2739 48.0948 24.3021 48.0948H30.5316C36.5597 48.0948 39.5738 48.0948 41.6867 46.5596C42.3691 46.0638 42.9692 45.4637 43.465 44.7814C45.0002 42.6684 45.0002 39.6543 45.0002 33.6262V22.3729C45.0002 16.3447 45.0002 13.3307 43.465 11.2177C42.9692 10.5353 42.3691 9.93522 41.6867 9.43944C39.5738 7.9043 36.5597 7.9043 30.5316 7.9043H29.2659C28.7108 7.9043 28.2238 7.9043 27.7892 7.90871V7.98269V7.98275C27.7892 10.7385 27.7892 12.9143 27.6126 14.6502C27.432 16.426 27.055 17.8966 26.1975 19.18C25.5084 20.2113 24.6229 21.0967 23.5917 21.7858C22.3083 22.6433 20.8376 23.0203 19.0618 23.201C17.326 23.3776 15.1501 23.3775 12.3943 23.3775H12.3943H12.3943H12.3943L9.86855 23.3775ZM24.9758 8.15851C24.9199 8.17248 24.8642 8.18722 24.8087 8.20278C24.4559 8.30169 24.1104 8.42461 23.7744 8.57067C22.7604 9.01142 21.8835 9.72552 20.1297 11.1537L15.1658 15.196C12.8406 17.0896 11.678 18.0363 10.9461 19.2785C10.7048 19.6881 10.5002 20.1184 10.3349 20.5642H12.3158C15.1674 20.5642 17.2002 20.5625 18.7771 20.4021C20.3304 20.2441 21.2846 19.9438 22.0286 19.4466C22.7527 18.9628 23.3744 18.3411 23.8583 17.617C24.3554 16.8729 24.6557 15.9188 24.8137 14.3654C24.9693 12.8359 24.9756 10.8773 24.9758 8.15851ZM37.9668 39.4539C37.9668 40.2308 37.337 40.8605 36.5602 40.8605H19.2783C18.5014 40.8605 17.8716 40.2308 17.8716 39.4539C17.8716 38.677 18.5014 38.0472 19.2783 38.0472H36.5602C37.337 38.0472 37.9668 38.677 37.9668 39.4539ZM30.5316 32.8224C31.3085 32.8224 31.9383 32.1927 31.9383 31.4158C31.9383 30.6389 31.3085 30.0091 30.5316 30.0091H19.2783C18.5014 30.0091 17.8716 30.6389 17.8716 31.4158C17.8716 32.1927 18.5014 32.8224 19.2783 32.8224L30.5316 32.8224Z" />
</svg>
