<svg viewBox="0 0 56 56" fill="none" xmlns="http://www.w3.org/2000/svg">
    <path fill-rule="evenodd" clip-rule="evenodd" d="M30.3532 6.57713C28.9819 5.46387 27.0182 5.46387 25.6469 6.57713L21.6298 9.83849C21.067 10.2954 20.3834 10.5786 19.6623 10.6535L14.5157 11.1879C12.7589 11.3703 11.3703 12.7589 11.1879 14.5157L10.6535 19.6623C10.5786 20.3834 10.2954 21.067 9.83849 21.6298L6.57713 25.6469C5.46387 27.0182 5.46387 28.9819 6.57713 30.3532L9.83849 34.3703C10.2954 34.9331 10.5786 35.6167 10.6535 36.3378L11.1879 41.4844C11.3703 43.2412 12.7589 44.6298 14.5157 44.8122L19.6623 45.3466C20.3834 45.4215 21.067 45.7047 21.6298 46.1616L25.6469 49.423C27.0182 50.5362 28.9819 50.5362 30.3532 49.423L34.3703 46.1616C34.9331 45.7047 35.6167 45.4215 36.3378 45.3466L41.4844 44.8122C43.2412 44.6298 44.6298 43.2412 44.8122 41.4844L45.3466 36.3378C45.4215 35.6167 45.7047 34.9331 46.1616 34.3703L49.423 30.3532C50.5362 28.9819 50.5362 27.0182 49.423 25.6469L46.1616 21.6298C45.7047 21.067 45.4215 20.3834 45.3466 19.6623L44.8122 14.5157C44.6298 12.7589 43.2412 11.3703 41.4844 11.1879L36.3378 10.6535C35.6167 10.5786 34.9331 10.2954 34.3703 9.83849L30.3532 6.57713ZM36.3526 21.9157C36.8583 21.1687 36.6627 20.1532 35.9157 19.6475C35.1687 19.1418 34.1532 19.3374 33.6475 20.0844L35.0001 21.0001L33.6474 20.0845L33.6472 20.0849L33.6461 20.0866L33.6415 20.0933L33.6231 20.1205L33.5508 20.227L33.2752 20.6325C33.0372 20.9822 32.6963 21.482 32.2852 22.0819C31.4626 23.2821 30.3602 24.8808 29.2386 26.4782C28.1149 28.0786 26.9808 29.6651 26.0921 30.8462C25.8712 31.1398 25.6695 31.403 25.4897 31.6318C25.1237 31.2728 24.706 30.8374 24.2869 30.3872C23.7565 29.8174 23.2435 29.245 22.8617 28.8136C22.6713 28.5983 22.5144 28.4191 22.4054 28.2941L22.2799 28.1496L22.2476 28.1123L22.2396 28.1031L22.2378 28.101L22.2374 28.1005L22.2374 28.1005L22.2374 28.1005L22.2373 28.1005C21.6485 27.4171 20.6172 27.3406 19.9338 27.9294C19.2505 28.5183 19.1739 29.5496 19.7627 30.2329L21.0001 29.1667L19.7629 30.2331L19.7631 30.2333L19.7638 30.2342L19.7663 30.2371L19.7757 30.2479L19.8109 30.2886L19.9428 30.4404C20.0563 30.5706 20.2186 30.756 20.4152 30.9782C20.8076 31.4217 21.3403 32.0161 21.8959 32.6129C22.4467 33.2046 23.0402 33.8206 23.5496 34.2971C23.8006 34.5319 24.0624 34.7623 24.3067 34.9439C24.427 35.0333 24.5784 35.1374 24.7469 35.2262C24.8651 35.2884 25.2126 35.4667 25.6667 35.4667C25.9932 35.4667 26.2419 35.3716 26.3635 35.3178C26.4997 35.2576 26.6061 35.1902 26.6748 35.1431C26.8112 35.0494 26.9244 34.9478 27.002 34.8742C27.1634 34.7211 27.3334 34.5322 27.4957 34.3419C27.828 33.9523 28.2442 33.4192 28.7024 32.8102C29.6243 31.585 30.7832 29.9631 31.9121 28.3553C33.0432 26.7443 34.1532 25.1347 34.9797 23.9286C35.3932 23.3254 35.7361 22.8226 35.9758 22.4705L36.2538 22.0614L36.3271 21.9533L36.346 21.9254L36.3509 21.9182L36.3521 21.9164L36.3525 21.9159L35.0001 21.0001L36.3526 21.9157Z" />
</svg>
