<svg  viewBox="0 0 56 56" fill="none" xmlns="http://www.w3.org/2000/svg">
    <path fill-rule="evenodd" clip-rule="evenodd" d="M28.0272 7C29.1667 7 40.8333 11.6667 45.5 14.9459V33.1081C45.5 42.8829 29.1667 49 28.0272 49C26.8877 49 10.5 42.1892 10.5 33.1081L10.5 14.9459C15.1667 11.6667 26.8877 7 28.0272 7ZM35.1427 24.3096C35.6819 23.5864 35.5328 22.563 34.8096 22.0238C34.0864 21.4846 33.0619 21.6354 32.5227 22.3585L32.2261 22.7553C32.0357 23.0094 31.7632 23.3728 31.4347 23.8089C30.7774 24.6815 29.8975 25.8436 29.0052 27.0046C28.1108 28.1682 27.212 29.3201 26.5141 30.1766L26.3624 30.3621C26.2351 30.2179 26.1031 30.0654 25.97 29.9094C25.6199 29.4991 25.2805 29.0861 25.0275 28.7741C24.9013 28.6186 24.7974 28.4891 24.7254 28.399L24.6426 28.295L24.6214 28.2684L24.615 28.2602C24.0558 27.5524 23.0287 27.4318 22.3209 27.991C21.613 28.5501 21.4933 29.5782 22.0524 30.2861L22.0606 30.2964L22.0844 30.3265L22.1733 30.438C22.2495 30.5335 22.3585 30.6692 22.4904 30.8318C22.7534 31.1562 23.1112 31.5917 23.4851 32.0298C23.8543 32.4625 24.2586 32.9207 24.6103 33.2796C24.7823 33.4551 24.9728 33.6389 25.1587 33.7896C25.2494 33.8631 25.3769 33.9597 25.5259 34.0453C25.6195 34.0991 25.9691 34.2999 26.4444 34.2999C26.787 34.2999 27.0424 34.1936 27.1458 34.1465C27.2713 34.0894 27.368 34.0274 27.4264 33.9874C27.5437 33.9071 27.64 33.8226 27.7018 33.766C27.832 33.6467 27.9684 33.5027 28.0953 33.3628C28.3564 33.075 28.6852 32.6836 29.0467 32.2399C29.7746 31.3465 30.6961 30.165 31.5952 28.9953C32.4963 27.823 33.383 26.6517 34.0439 25.7743C34.3745 25.3354 34.649 24.9696 34.8408 24.7134L35.1427 24.3096Z" />
</svg>
