<svg
        viewBox="0 0 32 32"
        fill="none"
        xmlns="http://www.w3.org/2000/svg"
>
    <path
            fillRule="evenodd"
            clipRule="evenodd"
            d="M3.15857 13.0295C3.08331 14.1139 3.08331 15.4742 3.08331 17.292C3.08331 20.903 3.08331 22.7086 3.67325 24.1328C4.45982 26.0318 5.96855 27.5405 7.86752 28.3271C9.29174 28.917 11.0973 28.917 14.7083 28.917H17.2916C20.9027 28.917 22.7082 28.917 24.1324 28.3271C26.0314 27.5405 27.5401 26.0318 28.3267 24.1328C28.9166 22.7086 28.9166 20.903 28.9166 17.292C28.9166 15.4742 28.9166 14.1139 28.8414 13.0295H3.15857ZM3.41973 11.2212H28.5802C28.511 10.9487 28.4274 10.6944 28.3267 10.4512C27.5401 8.55223 26.0314 7.0435 24.1324 6.25693C22.7082 5.66699 20.9027 5.66699 17.2916 5.66699H14.7083C11.0973 5.66699 9.29174 5.66699 7.86752 6.25693C5.96855 7.0435 4.45982 8.55223 3.67325 10.4512C3.57252 10.6944 3.48899 10.9487 3.41973 11.2212ZM7.34581 17.292C7.34581 16.7926 7.75062 16.3878 8.24998 16.3878H9.54165C10.041 16.3878 10.4458 16.7926 10.4458 17.292C10.4458 17.7913 10.041 18.1962 9.54165 18.1962H8.24998C7.75062 18.1962 7.34581 17.7913 7.34581 17.292ZM22.4583 16.3878C21.959 16.3878 21.5541 16.7926 21.5541 17.292C21.5541 17.7913 21.959 18.1962 22.4583 18.1962H23.75C24.2493 18.1962 24.6541 17.7913 24.6541 17.292C24.6541 16.7926 24.2493 16.3878 23.75 16.3878H22.4583ZM14.45 17.292C14.45 16.7926 14.8548 16.3878 15.3541 16.3878H16.6458C17.1452 16.3878 17.55 16.7926 17.55 17.292C17.55 17.7913 17.1452 18.1962 16.6458 18.1962H15.3541C14.8548 18.1962 14.45 17.7913 14.45 17.292ZM8.24998 21.5545C7.75062 21.5545 7.34581 21.9593 7.34581 22.4587C7.34581 22.958 7.75062 23.3628 8.24998 23.3628H9.54165C10.041 23.3628 10.4458 22.958 10.4458 22.4587C10.4458 21.9593 10.041 21.5545 9.54165 21.5545H8.24998ZM21.5541 22.4587C21.5541 21.9593 21.959 21.5545 22.4583 21.5545H23.75C24.2493 21.5545 24.6541 21.9593 24.6541 22.4587C24.6541 22.958 24.2493 23.3628 23.75 23.3628H22.4583C21.959 23.3628 21.5541 22.958 21.5541 22.4587ZM15.3541 21.5545C14.8548 21.5545 14.45 21.9593 14.45 22.4587C14.45 22.958 14.8548 23.3628 15.3541 23.3628H16.6458C17.1452 23.3628 17.55 22.958 17.55 22.4587C17.55 21.9593 17.1452 21.5545 16.6458 21.5545H15.3541Z"
    />
    <path
            fillRule="evenodd"
            clipRule="evenodd"
            d="M22.0708 3.08398C22.5702 3.08398 22.975 3.48879 22.975 3.98815V7.34648C22.975 7.84584 22.5702 8.25065 22.0708 8.25065C21.5715 8.25065 21.1666 7.84584 21.1666 7.34648V3.98815C21.1666 3.48879 21.5715 3.08398 22.0708 3.08398Z"
    />
    <path
            fillRule="evenodd"
            clipRule="evenodd"
            d="M10.4458 3.08398C10.9452 3.08398 11.35 3.48879 11.35 3.98815V7.34648C11.35 7.84584 10.9452 8.25065 10.4458 8.25065C9.94645 8.25065 9.54164 7.84584 9.54164 7.34648V3.98815C9.54164 3.48879 9.94645 3.08398 10.4458 3.08398Z"

    />
</svg>