<svg viewBox="0 0 32 32" fill="none" xmlns="http://www.w3.org/2000/svg">
    <path fill-rule="evenodd" clip-rule="evenodd" d="M13.7854 4H19.1742C24.0485 4 28 7.95145 28 12.8258L28 17.9333C28 22.8303 24.0303 26.8 19.1333 26.8H14.7L10.3164 26.7255C8.51693 26.6949 6.72198 26.9153 4.98337 27.3803L4.36252 27.5464C3.63538 27.7409 2.98377 27.0487 3.22179 26.3346C3.73674 24.7898 3.98166 23.1677 3.94579 21.5397L3.77979 14.0056C3.77979 8.47966 8.25945 4 13.7854 4ZM10.6667 17.3333C11.403 17.3333 12 16.7364 12 16C12 15.2636 11.403 14.6667 10.6667 14.6667C9.93029 14.6667 9.33333 15.2636 9.33333 16C9.33333 16.7364 9.93029 17.3333 10.6667 17.3333ZM17.3333 16C17.3333 16.7364 16.7364 17.3333 16 17.3333C15.2636 17.3333 14.6667 16.7364 14.6667 16C14.6667 15.2636 15.2636 14.6667 16 14.6667C16.7364 14.6667 17.3333 15.2636 17.3333 16ZM21.3333 17.3333C22.0697 17.3333 22.6667 16.7364 22.6667 16C22.6667 15.2636 22.0697 14.6667 21.3333 14.6667C20.597 14.6667 20 15.2636 20 16C20 16.7364 20.597 17.3333 21.3333 17.3333Z" fill="#222628"/>
</svg>
