<svg viewBox="0 0 33 32" fill="none" xmlns="http://www.w3.org/2000/svg">
    <path fill-rule="evenodd" clip-rule="evenodd" d="M5.39702 6.48486C4.5 8.12763 4.5 10.3071 4.5 14.666V17.3327C4.5 21.6916 4.5 23.8711 5.39702 25.5138C6.07076 26.7477 7.08497 27.7619 8.31884 28.4357C9.96161 29.3327 12.1411 29.3327 16.5 29.3327C20.8589 29.3327 23.0384 29.3327 24.6812 28.4357C25.915 27.7619 26.9292 26.7477 27.603 25.5138C28.5 23.8711 28.5 21.6916 28.5 17.3327V14.666C28.5 10.3071 28.5 8.12763 27.603 6.48486C26.9292 5.25099 25.915 4.23678 24.6812 3.56304C23.0384 2.66602 20.8589 2.66602 16.5 2.66602C12.1411 2.66602 9.96161 2.66602 8.31884 3.56304C7.08497 4.23678 6.07076 5.25099 5.39702 6.48486ZM20.9 23.1994C21.4155 23.1994 21.8333 22.7815 21.8333 22.266C21.8333 21.7506 21.4155 21.3327 20.9 21.3327L10.7667 21.3327C10.2512 21.3327 9.83333 21.7506 9.83333 22.266C9.83333 22.7815 10.2512 23.1994 10.7667 23.1994H20.9ZM21.8333 16.9327C21.8333 17.4482 21.4155 17.866 20.9 17.866L10.7667 17.866C10.2512 17.866 9.83333 17.4482 9.83333 16.9327C9.83333 16.4172 10.2512 15.9994 10.7667 15.9994L20.9 15.9994C21.4155 15.9994 21.8333 16.4172 21.8333 16.9327ZM15.5667 12.5327C16.0821 12.5327 16.5 12.1148 16.5 11.5994C16.5 11.0839 16.0821 10.666 15.5667 10.666L10.7667 10.666C10.2512 10.666 9.83333 11.0839 9.83333 11.5994C9.83333 12.1148 10.2512 12.5327 10.7667 12.5327L15.5667 12.5327Z" fill="#222628"/>
</svg>
