<svg viewBox="0 0 32 32" fill="none" xmlns="http://www.w3.org/2000/svg">
    <path fill-rule="evenodd" clip-rule="evenodd" d="M2.66669 16.0003C2.66669 15.3858 2.66669 14.8092 2.66869 14.267L15.4667 14.267L15.4667 29.3336C10.8352 29.3322 8.45567 29.2947 6.66669 28.2619C5.45053 27.5597 4.44063 26.5498 3.73848 25.3337C2.66669 23.4773 2.66669 20.9849 2.66669 16.0003ZM17.3334 29.3328C21.4448 29.3243 23.6504 29.2335 25.3334 28.2619C26.5495 27.5597 27.5594 26.5498 28.2616 25.3337C29.3334 23.4773 29.3334 20.9849 29.3334 16.0003C29.3334 11.0157 29.3334 8.5234 28.2616 6.66699C27.5594 5.45084 26.5495 4.44094 25.3334 3.73879C23.6504 2.76713 21.4448 2.67635 17.3334 2.66787V14.267L17.3334 29.3328ZM15.4667 12.4003V2.66704C10.8352 2.66841 8.45567 2.70592 6.66669 3.73879C5.45053 4.44094 4.44063 5.45084 3.73848 6.66699C2.96281 8.01049 2.7485 9.68705 2.68929 12.4003L15.4667 12.4003ZM15.8709 2.66699L16.1285 2.66699C16.0858 2.66699 16.043 2.66699 16 2.66699C15.9568 2.66699 15.9137 2.66699 15.8709 2.66699Z" fill="#222628"/>
</svg>
