<svg viewBox="0 0 75 83" fill="none" xmlns="http://www.w3.org/2000/svg">
    <path d="M49.7312 58C49.7312 71.8071 38.5985 83 24.8656 83C11.1327 83 0 71.8071 0 58C0 44.1929 11.1327 33 24.8656 33C38.5985 33 49.7312 44.1929 49.7312 58Z" fill="#003CFF"/>
    <path d="M49.7312 58C49.7312 71.8071 38.5985 83 24.8656 83C11.1327 83 0 71.8071 0 58C0 44.1929 11.1327 33 24.8656 33C38.5985 33 49.7312 44.1929 49.7312 58Z" fill="url(#paint0_linear_2001_2497)"/>
    <g filter="url(#filter0_b_2001_2497)">
        <path d="M28.8467 9.25115C32.7322 6.99601 38.219 5.85159 43.9603 6.08276C49.6889 6.31342 55.3846 7.90297 59.6842 10.796C60.8372 11.5718 62.3971 11.2604 63.1682 10.1004C63.9394 8.94045 63.6298 7.37118 62.4768 6.59536C57.242 3.07305 50.5933 1.29222 44.1612 1.03323C37.7417 0.774749 31.2511 2.0214 26.3365 4.87378C25.135 5.57112 24.7229 7.11634 25.416 8.32512C26.1092 9.5339 27.6451 9.9485 28.8467 9.25115ZM46.3608 10.7549C44.9871 10.5608 43.7172 11.5238 43.5243 12.9058C43.3315 14.2877 44.2887 15.5653 45.6623 15.7594C55.1902 17.1053 60.849 22.5474 64.2553 28.1328C67.7022 33.7846 68.7781 39.5057 69.0068 40.975C69.2214 42.3538 70.5063 43.2964 71.8767 43.0805C73.2471 42.8647 74.1841 41.572 73.9696 40.1933C73.6935 38.4197 72.4785 31.9531 68.5369 25.49C64.5548 18.9605 57.7276 12.3605 46.3608 10.7549ZM34.8439 28.448C28.7165 33.4123 25.0972 44.1544 31.7457 58.0125C32.3487 59.2693 31.8247 60.7798 30.5755 61.3864C29.3263 61.993 27.8248 61.4659 27.2219 60.2091C19.776 44.6889 23.3823 31.2454 31.6933 24.5121C35.8052 21.1808 41.0068 19.5844 46.2771 20.3446C51.5692 21.1079 56.6946 24.2103 60.7289 29.8346C61.5406 30.9662 61.2867 32.5455 60.1619 33.3622C59.0371 34.1788 57.4672 33.9234 56.6555 32.7918C53.3112 28.1293 49.3344 25.8908 45.5642 25.347C41.7722 24.8001 37.9513 25.9305 34.8439 28.448ZM42.6266 61.3674C38.486 52.8039 37.2858 45.6472 38.0688 40.9777C38.4561 38.6679 39.2925 37.1483 40.2917 36.2576C41.2454 35.4075 42.5904 34.9101 44.5201 35.0942C47.1183 35.342 48.2695 36.1812 48.9692 37.1174C49.8092 38.2414 50.2811 39.8548 50.8208 42.2916C50.8867 42.5892 50.9527 42.8952 51.0204 43.2088C52.0053 47.7727 53.3341 53.9299 59.5562 58.6951C60.6599 59.5403 62.2358 59.3254 63.0759 58.215C63.9161 57.1046 63.7025 55.5193 62.5988 54.674C57.8845 51.0636 56.9063 46.5933 55.8944 41.969L55.8936 41.9653C55.8373 41.7085 55.7808 41.4503 55.7238 41.1926C55.2085 38.8659 54.5664 36.1975 52.9842 34.0805C51.2618 31.7758 48.683 30.415 44.9942 30.0632C41.8902 29.7671 39.1048 30.5637 36.9604 32.4752C34.8615 34.3462 33.6322 37.056 33.1156 40.1371C32.0907 46.2491 33.7296 54.5195 38.1094 63.5779C38.7162 64.8328 40.2193 65.3553 41.4666 64.7449C42.714 64.1344 43.2333 62.6223 42.6266 61.3674ZM22.7522 11.0321C23.6891 12.0612 23.6194 13.6595 22.5966 14.6021C19.5289 17.429 17.6211 20.5655 17.0305 21.6137C16.3464 22.8277 14.8137 23.254 13.6069 22.5658C12.4002 21.8776 11.9765 20.3355 12.6606 19.1215C13.3817 17.8418 15.5934 14.2024 19.2037 10.8756C20.2266 9.93297 21.8153 10.0031 22.7522 11.0321ZM64.3883 40.5335C64.1315 39.1621 62.8182 38.2599 61.4551 38.5182C60.092 38.7766 59.1951 40.0978 59.452 41.4692C60.389 46.4723 62.688 50.6536 66.8792 53.2582C68.0593 53.9916 69.6069 53.6236 70.3359 52.4364C71.0649 51.2491 70.6991 49.6921 69.519 48.9587C66.8322 47.289 65.1379 44.5362 64.3883 40.5335ZM43.7411 40.582C45.1234 40.4653 46.3379 41.498 46.4539 42.8887C47.2112 51.9705 51.716 57.7079 52.9493 59.1197C53.865 60.1679 53.7627 61.7645 52.7207 62.6857C51.6788 63.607 50.0918 63.504 49.1761 62.4558C47.5612 60.6071 42.3298 53.8825 41.4483 43.3111C41.3323 41.9205 42.3588 40.6986 43.7411 40.582ZM36.9616 16.5484C38.2342 15.9932 38.8184 14.5051 38.2664 13.2249C37.7145 11.9446 36.2354 11.3569 34.9628 11.9121C23.4681 16.9277 18.2031 25.47 15.9283 33.1613C13.6805 40.7612 14.3408 47.5252 14.5793 49.3414C14.761 50.7249 16.0231 51.6982 17.3982 51.5154C18.7734 51.3326 19.7409 50.0629 19.5592 48.6794C19.3645 47.1973 18.781 41.2358 20.7429 34.6025C22.6777 28.0607 27.0757 20.862 36.9616 16.5484Z" fill="url(#paint1_linear_2001_2497)" fill-opacity="0.3"/>
    </g>
    <g filter="url(#filter1_b_2001_2497)">
        <path fill-rule="evenodd" clip-rule="evenodd" d="M26.2867 4.78756C31.2217 1.92335 37.7321 0.674677 44.165 0.933697C50.6111 1.19325 57.2787 2.97786 62.532 6.51264C63.7307 7.31918 64.0524 8.95053 63.2508 10.1564C62.4491 11.3623 60.8275 11.6861 59.6288 10.8795C55.3477 7.99892 49.6709 6.41317 43.9562 6.18307C38.2283 5.95244 32.7615 7.09482 28.8962 9.33815C27.6471 10.0631 26.0503 9.63207 25.3298 8.37545C24.6092 7.11887 25.0376 5.51252 26.2867 4.78756ZM44.1571 1.13354C37.751 0.875598 31.2803 2.12022 26.3861 4.96077C25.2322 5.6305 24.8363 7.11458 25.5021 8.27556C26.1678 9.4365 27.6429 9.83464 28.7968 9.16494C32.7028 6.89796 38.2093 5.75151 43.9641 5.98323C49.7067 6.21445 55.4213 7.80779 59.7394 10.7133C60.8467 11.4584 62.3448 11.1593 63.0854 10.0452C63.8261 8.93114 63.5287 7.42395 62.4214 6.67885C57.2051 3.16901 50.5753 1.39197 44.1571 1.13354ZM22.6787 11.1001C21.7789 10.1117 20.2531 10.0444 19.2708 10.9497C15.6712 14.2666 13.4655 17.8961 12.747 19.1712C12.09 20.3372 12.497 21.8182 13.6559 22.4792C14.8148 23.1401 16.2868 22.7308 16.9438 21.5648C17.537 20.512 19.4508 17.3656 22.5292 14.5288C23.5116 13.6235 23.5786 12.0884 22.6787 11.1001ZM19.1363 10.8022C20.1997 9.8223 21.8514 9.89519 22.8254 10.965C23.7994 12.0348 23.727 13.6964 22.6636 14.6762C19.6067 17.4932 17.705 20.6197 17.1169 21.6634C16.4058 22.9254 14.8123 23.3686 13.5577 22.6531C12.3032 21.9377 11.8628 20.3346 12.5739 19.0726C13.2976 17.7883 15.5153 14.139 19.1363 10.8022ZM43.4257 12.8923C43.6262 11.4557 44.9464 10.4545 46.3745 10.6562C57.7778 12.2671 64.6281 18.89 68.6216 25.4381C72.573 31.9172 73.7907 38.3987 74.0677 40.1782C74.2908 41.6114 73.3167 42.9553 71.892 43.1797C70.4672 43.4042 69.1315 42.4241 68.9084 40.9909C68.6807 39.5276 67.6075 33.8212 64.1704 28.1855C60.7755 22.6188 55.1399 17.1995 45.6483 15.8588C44.2203 15.6571 43.2252 14.3289 43.4257 12.8923ZM46.3468 10.8543C45.0276 10.668 43.808 11.5928 43.6227 12.9201C43.4375 14.2474 44.3568 15.4744 45.676 15.6607C55.2403 17.0118 60.9222 22.4768 64.34 28.0809C67.7966 33.7488 68.8753 39.4846 69.105 40.96C69.311 42.2842 70.5451 43.1895 71.8612 42.9821C73.1773 42.7748 74.0773 41.5334 73.8712 40.2091C73.5961 38.4416 72.3838 31.9897 68.452 25.5426C64.4812 19.0318 57.6771 12.4548 46.3468 10.8543ZM34.9231 11.8208C36.2461 11.2435 37.7838 11.8546 38.3576 13.1855C38.9313 14.5164 38.3241 16.0633 37.0011 16.6406C27.147 20.9403 22.7662 28.1123 20.8381 34.6314C18.8819 41.2456 19.4639 47.1911 19.6577 48.6667C19.8466 50.1049 18.8408 51.4249 17.4112 51.6149C15.9815 51.805 14.6694 50.793 14.4805 49.3549C14.2411 47.5321 13.5794 40.7522 15.8328 33.1332C18.1143 25.4192 23.3965 16.8503 34.9231 11.8208ZM38.175 13.265C37.6449 12.0354 36.2244 11.471 35.0023 12.0043C23.5395 17.0059 18.2916 25.5216 16.0235 33.1902C13.7814 40.771 14.4401 47.5191 14.6778 49.3287C14.8523 50.6575 16.0644 51.5922 17.3851 51.4166C18.7057 51.2411 19.635 50.0217 19.4605 48.6929C19.2649 47.2041 18.6799 41.2268 20.6474 34.5744C22.589 28.0098 27.0041 20.7846 36.9219 16.4571C38.144 15.9238 38.7052 14.4947 38.175 13.265ZM46.2628 20.4439C41.0218 19.688 35.8476 21.2751 31.7556 24.5903C23.4879 31.2885 19.8811 44.6786 27.3113 60.1661C27.8904 61.3731 29.3324 61.8793 30.5321 61.2968C31.7319 60.7142 32.2351 59.2634 31.656 58.0563C24.9916 44.1651 28.6109 33.3697 34.7814 28.3706C37.9087 25.8369 41.757 24.6973 45.5782 25.2484C49.3786 25.7965 53.378 28.0522 56.7361 32.7337C57.5156 33.8205 59.0233 34.0657 60.1036 33.2815C61.1839 32.4972 61.4277 30.9803 60.6481 29.8934C56.6274 24.2881 51.5247 21.2029 46.2628 20.4439ZM31.6308 24.4346C35.7625 21.0872 40.9914 19.4816 46.2911 20.246C51.6133 21.0136 56.7615 24.1331 60.8094 29.7765C61.6532 30.9528 61.3894 32.5947 60.22 33.4436C59.0506 34.2926 57.4185 34.0271 56.5747 32.8507C53.244 28.2073 49.2901 25.9858 45.55 25.4464C41.7873 24.9037 37.9937 26.0249 34.9062 28.5263C28.8218 33.4557 25.2025 44.1444 31.8352 57.9694C32.462 59.2759 31.9174 60.8462 30.6187 61.4769C29.3199 62.1075 27.759 61.5595 27.1322 60.253C19.6706 44.7001 23.2764 31.203 31.6308 24.4346ZM36.8943 32.4008C39.0623 30.4682 41.8763 29.6657 45.0035 29.964C48.7138 30.3179 51.3209 31.689 53.0636 34.0208C54.6604 36.1574 55.3059 38.8465 55.8207 41.1713C55.8774 41.4272 55.9335 41.6836 55.9893 41.9385L55.9905 41.9441L55.9906 41.9442L55.9913 41.9478L55.9914 41.9479C57.0035 46.5732 57.9764 51.0088 62.6589 54.5948C63.8063 55.4736 64.0284 57.1217 63.155 58.276C62.2815 59.4303 60.6432 59.6538 59.4958 58.775C53.2445 53.9875 51.9091 47.7993 50.9241 43.2351L50.9231 43.2304C50.8554 42.9167 50.7894 42.611 50.7236 42.3137C50.1833 39.8744 49.7148 38.2821 48.8896 37.1779C48.21 36.2686 47.087 35.4399 44.5106 35.1941C42.6043 35.0123 41.2878 35.5036 40.3575 36.3328C39.3801 37.2041 38.5515 38.7003 38.1668 40.9947C37.3886 45.6357 38.5801 52.7704 42.7159 61.324C43.3466 62.6286 42.8068 64.2006 41.51 64.8352C40.2132 65.4698 38.6506 64.9266 38.0198 63.622C33.6353 54.5539 31.9877 46.2614 33.0174 40.1208C33.5366 37.0246 34.7736 34.2912 36.8943 32.4008ZM44.9847 30.1631C41.9039 29.8692 39.147 30.66 37.0263 32.5504C34.9491 34.402 33.7276 37.0882 33.2135 40.1541C32.1935 46.2376 33.8236 54.486 38.1987 63.5346C38.7815 64.7399 40.225 65.2416 41.423 64.6553C42.6209 64.0691 43.1197 62.6168 42.537 61.4115C38.3917 52.8382 37.1828 45.6595 37.9706 40.9614C38.3605 38.6363 39.2047 37.0932 40.2256 36.1832C41.2028 35.3121 42.5763 34.8087 44.5294 34.995C47.1493 35.2449 48.3287 36.0945 49.0486 37.0578C49.9033 38.2014 50.3786 39.836 50.9177 42.2703C50.9837 42.5681 51.0498 42.8744 51.1175 43.1879C52.1022 47.7511 53.4255 53.8748 59.6163 58.6159C60.6763 59.4277 62.1897 59.2213 62.9967 58.1549C63.8036 57.0884 63.5984 55.5657 62.5384 54.7539C57.7951 51.1213 56.8099 46.6194 55.7989 41.999L55.7971 41.9909L55.7971 41.9909L55.7963 41.9873L55.7963 41.9872C55.7401 41.7303 55.6836 41.4723 55.6266 41.2147C55.1109 38.8861 54.4721 36.2384 52.9046 34.141C51.2025 31.8634 48.6519 30.5129 44.9847 30.1631ZM61.4366 38.4204C62.8537 38.1517 64.219 39.0898 64.4859 40.5154C65.2318 44.4982 66.9141 47.2228 69.5712 48.8741C70.798 49.6365 71.1782 51.2551 70.4204 52.4893C69.6626 53.7235 68.0536 54.1061 66.8267 53.3436C62.6058 50.7206 60.2948 46.5109 59.3541 41.4881C59.0871 40.0625 60.0194 38.689 61.4366 38.4204ZM64.2904 40.5524C64.0438 39.2352 62.7825 38.3688 61.4734 38.6169C60.1643 38.865 59.3029 40.1339 59.5496 41.4511C60.4829 46.4345 62.77 50.5875 66.9313 53.1735C68.0647 53.8778 69.551 53.5245 70.2511 52.3842C70.9513 51.2439 70.6 49.7485 69.4666 49.0442C66.7501 47.356 65.0438 44.5749 64.2904 40.5524ZM46.3546 42.8974C46.2433 41.5618 45.0768 40.57 43.7493 40.682C42.4218 40.794 41.4359 41.9675 41.5472 43.3032C42.4263 53.8451 47.6434 60.5501 49.2507 62.3902C50.1302 63.3969 51.6543 63.4958 52.6549 62.611C53.6556 61.7263 53.7539 60.1928 52.8744 59.1861C51.6335 57.7656 47.1144 52.0087 46.3546 42.8974ZM43.7327 40.4827C45.1697 40.3614 46.4323 41.4351 46.5529 42.8807C47.3077 51.9331 51.7981 57.6509 53.0239 59.0541C53.9758 60.1438 53.8694 61.8035 52.7863 62.7612C51.7031 63.7189 50.0532 63.6119 49.1013 62.5222C47.4788 60.6648 42.233 53.9207 41.349 43.3199C41.2285 41.8743 42.2956 40.604 43.7327 40.4827Z" fill="url(#paint2_linear_2001_2497)"/>
        <path fill-rule="evenodd" clip-rule="evenodd" d="M26.2867 4.78756C31.2217 1.92335 37.7321 0.674677 44.165 0.933697C50.6111 1.19325 57.2787 2.97786 62.532 6.51264C63.7307 7.31918 64.0524 8.95053 63.2508 10.1564C62.4491 11.3623 60.8275 11.6861 59.6288 10.8795C55.3477 7.99892 49.6709 6.41317 43.9562 6.18307C38.2283 5.95244 32.7615 7.09482 28.8962 9.33815C27.6471 10.0631 26.0503 9.63207 25.3298 8.37545C24.6092 7.11887 25.0376 5.51252 26.2867 4.78756ZM44.1571 1.13354C37.751 0.875598 31.2803 2.12022 26.3861 4.96077C25.2322 5.6305 24.8363 7.11458 25.5021 8.27556C26.1678 9.4365 27.6429 9.83464 28.7968 9.16494C32.7028 6.89796 38.2093 5.75151 43.9641 5.98323C49.7067 6.21445 55.4213 7.80779 59.7394 10.7133C60.8467 11.4584 62.3448 11.1593 63.0854 10.0452C63.8261 8.93114 63.5287 7.42395 62.4214 6.67885C57.2051 3.16901 50.5753 1.39197 44.1571 1.13354ZM22.6787 11.1001C21.7789 10.1117 20.2531 10.0444 19.2708 10.9497C15.6712 14.2666 13.4655 17.8961 12.747 19.1712C12.09 20.3372 12.497 21.8182 13.6559 22.4792C14.8148 23.1401 16.2868 22.7308 16.9438 21.5648C17.537 20.512 19.4508 17.3656 22.5292 14.5288C23.5116 13.6235 23.5786 12.0884 22.6787 11.1001ZM19.1363 10.8022C20.1997 9.8223 21.8514 9.89519 22.8254 10.965C23.7994 12.0348 23.727 13.6964 22.6636 14.6762C19.6067 17.4932 17.705 20.6197 17.1169 21.6634C16.4058 22.9254 14.8123 23.3686 13.5577 22.6531C12.3032 21.9377 11.8628 20.3346 12.5739 19.0726C13.2976 17.7883 15.5153 14.139 19.1363 10.8022ZM43.4257 12.8923C43.6262 11.4557 44.9464 10.4545 46.3745 10.6562C57.7778 12.2671 64.6281 18.89 68.6216 25.4381C72.573 31.9172 73.7907 38.3987 74.0677 40.1782C74.2908 41.6114 73.3167 42.9553 71.892 43.1797C70.4672 43.4042 69.1315 42.4241 68.9084 40.9909C68.6807 39.5276 67.6075 33.8212 64.1704 28.1855C60.7755 22.6188 55.1399 17.1995 45.6483 15.8588C44.2203 15.6571 43.2252 14.3289 43.4257 12.8923ZM46.3468 10.8543C45.0276 10.668 43.808 11.5928 43.6227 12.9201C43.4375 14.2474 44.3568 15.4744 45.676 15.6607C55.2403 17.0118 60.9222 22.4768 64.34 28.0809C67.7966 33.7488 68.8753 39.4846 69.105 40.96C69.311 42.2842 70.5451 43.1895 71.8612 42.9821C73.1773 42.7748 74.0773 41.5334 73.8712 40.2091C73.5961 38.4416 72.3838 31.9897 68.452 25.5426C64.4812 19.0318 57.6771 12.4548 46.3468 10.8543ZM34.9231 11.8208C36.2461 11.2435 37.7838 11.8546 38.3576 13.1855C38.9313 14.5164 38.3241 16.0633 37.0011 16.6406C27.147 20.9403 22.7662 28.1123 20.8381 34.6314C18.8819 41.2456 19.4639 47.1911 19.6577 48.6667C19.8466 50.1049 18.8408 51.4249 17.4112 51.6149C15.9815 51.805 14.6694 50.793 14.4805 49.3549C14.2411 47.5321 13.5794 40.7522 15.8328 33.1332C18.1143 25.4192 23.3965 16.8503 34.9231 11.8208ZM38.175 13.265C37.6449 12.0354 36.2244 11.471 35.0023 12.0043C23.5395 17.0059 18.2916 25.5216 16.0235 33.1902C13.7814 40.771 14.4401 47.5191 14.6778 49.3287C14.8523 50.6575 16.0644 51.5922 17.3851 51.4166C18.7057 51.2411 19.635 50.0217 19.4605 48.6929C19.2649 47.2041 18.6799 41.2268 20.6474 34.5744C22.589 28.0098 27.0041 20.7846 36.9219 16.4571C38.144 15.9238 38.7052 14.4947 38.175 13.265ZM46.2628 20.4439C41.0218 19.688 35.8476 21.2751 31.7556 24.5903C23.4879 31.2885 19.8811 44.6786 27.3113 60.1661C27.8904 61.3731 29.3324 61.8793 30.5321 61.2968C31.7319 60.7142 32.2351 59.2634 31.656 58.0563C24.9916 44.1651 28.6109 33.3697 34.7814 28.3706C37.9087 25.8369 41.757 24.6973 45.5782 25.2484C49.3786 25.7965 53.378 28.0522 56.7361 32.7337C57.5156 33.8205 59.0233 34.0657 60.1036 33.2815C61.1839 32.4972 61.4277 30.9803 60.6481 29.8934C56.6274 24.2881 51.5247 21.2029 46.2628 20.4439ZM31.6308 24.4346C35.7625 21.0872 40.9914 19.4816 46.2911 20.246C51.6133 21.0136 56.7615 24.1331 60.8094 29.7765C61.6532 30.9528 61.3894 32.5947 60.22 33.4436C59.0506 34.2926 57.4185 34.0271 56.5747 32.8507C53.244 28.2073 49.2901 25.9858 45.55 25.4464C41.7873 24.9037 37.9937 26.0249 34.9062 28.5263C28.8218 33.4557 25.2025 44.1444 31.8352 57.9694C32.462 59.2759 31.9174 60.8462 30.6187 61.4769C29.3199 62.1075 27.759 61.5595 27.1322 60.253C19.6706 44.7001 23.2764 31.203 31.6308 24.4346ZM36.8943 32.4008C39.0623 30.4682 41.8763 29.6657 45.0035 29.964C48.7138 30.3179 51.3209 31.689 53.0636 34.0208C54.6604 36.1574 55.3059 38.8465 55.8207 41.1713C55.8774 41.4272 55.9335 41.6836 55.9893 41.9385L55.9905 41.9441L55.9906 41.9442L55.9913 41.9478L55.9914 41.9479C57.0035 46.5732 57.9764 51.0088 62.6589 54.5948C63.8063 55.4736 64.0284 57.1217 63.155 58.276C62.2815 59.4303 60.6432 59.6538 59.4958 58.775C53.2445 53.9875 51.9091 47.7993 50.9241 43.2351L50.9231 43.2304C50.8554 42.9167 50.7894 42.611 50.7236 42.3137C50.1833 39.8744 49.7148 38.2821 48.8896 37.1779C48.21 36.2686 47.087 35.4399 44.5106 35.1941C42.6043 35.0123 41.2878 35.5036 40.3575 36.3328C39.3801 37.2041 38.5515 38.7003 38.1668 40.9947C37.3886 45.6357 38.5801 52.7704 42.7159 61.324C43.3466 62.6286 42.8068 64.2006 41.51 64.8352C40.2132 65.4698 38.6506 64.9266 38.0198 63.622C33.6353 54.5539 31.9877 46.2614 33.0174 40.1208C33.5366 37.0246 34.7736 34.2912 36.8943 32.4008ZM44.9847 30.1631C41.9039 29.8692 39.147 30.66 37.0263 32.5504C34.9491 34.402 33.7276 37.0882 33.2135 40.1541C32.1935 46.2376 33.8236 54.486 38.1987 63.5346C38.7815 64.7399 40.225 65.2416 41.423 64.6553C42.6209 64.0691 43.1197 62.6168 42.537 61.4115C38.3917 52.8382 37.1828 45.6595 37.9706 40.9614C38.3605 38.6363 39.2047 37.0932 40.2256 36.1832C41.2028 35.3121 42.5763 34.8087 44.5294 34.995C47.1493 35.2449 48.3287 36.0945 49.0486 37.0578C49.9033 38.2014 50.3786 39.836 50.9177 42.2703C50.9837 42.5681 51.0498 42.8744 51.1175 43.1879C52.1022 47.7511 53.4255 53.8748 59.6163 58.6159C60.6763 59.4277 62.1897 59.2213 62.9967 58.1549C63.8036 57.0884 63.5984 55.5657 62.5384 54.7539C57.7951 51.1213 56.8099 46.6194 55.7989 41.999L55.7971 41.9909L55.7971 41.9909L55.7963 41.9873L55.7963 41.9872C55.7401 41.7303 55.6836 41.4723 55.6266 41.2147C55.1109 38.8861 54.4721 36.2384 52.9046 34.141C51.2025 31.8634 48.6519 30.5129 44.9847 30.1631ZM61.4366 38.4204C62.8537 38.1517 64.219 39.0898 64.4859 40.5154C65.2318 44.4982 66.9141 47.2228 69.5712 48.8741C70.798 49.6365 71.1782 51.2551 70.4204 52.4893C69.6626 53.7235 68.0536 54.1061 66.8267 53.3436C62.6058 50.7206 60.2948 46.5109 59.3541 41.4881C59.0871 40.0625 60.0194 38.689 61.4366 38.4204ZM64.2904 40.5524C64.0438 39.2352 62.7825 38.3688 61.4734 38.6169C60.1643 38.865 59.3029 40.1339 59.5496 41.4511C60.4829 46.4345 62.77 50.5875 66.9313 53.1735C68.0647 53.8778 69.551 53.5245 70.2511 52.3842C70.9513 51.2439 70.6 49.7485 69.4666 49.0442C66.7501 47.356 65.0438 44.5749 64.2904 40.5524ZM46.3546 42.8974C46.2433 41.5618 45.0768 40.57 43.7493 40.682C42.4218 40.794 41.4359 41.9675 41.5472 43.3032C42.4263 53.8451 47.6434 60.5501 49.2507 62.3902C50.1302 63.3969 51.6543 63.4958 52.6549 62.611C53.6556 61.7263 53.7539 60.1928 52.8744 59.1861C51.6335 57.7656 47.1144 52.0087 46.3546 42.8974ZM43.7327 40.4827C45.1697 40.3614 46.4323 41.4351 46.5529 42.8807C47.3077 51.9331 51.7981 57.6509 53.0239 59.0541C53.9758 60.1438 53.8694 61.8035 52.7863 62.7612C51.7031 63.7189 50.0532 63.6119 49.1013 62.5222C47.4788 60.6648 42.233 53.9207 41.349 43.3199C41.2285 41.8743 42.2956 40.604 43.7327 40.4827Z" fill="url(#paint3_radial_2001_2497)"/>
    </g>
    <defs>
        <filter id="filter0_b_2001_2497" x="0.333558" y="-10.9999" width="85.6664" height="87.9999" filterUnits="userSpaceOnUse" color-interpolation-filters="sRGB">
            <feFlood flood-opacity="0" result="BackgroundImageFix"/>
            <feGaussianBlur in="BackgroundImageFix" stdDeviation="5.99997"/>
            <feComposite in2="SourceAlpha" operator="in" result="effect1_backgroundBlur_2001_2497"/>
            <feBlend mode="normal" in="SourceGraphic" in2="effect1_backgroundBlur_2001_2497" result="shape"/>
        </filter>
        <filter id="filter1_b_2001_2497" x="-17.7661" y="-29.0996" width="121.866" height="124.199" filterUnits="userSpaceOnUse" color-interpolation-filters="sRGB">
            <feFlood flood-opacity="0" result="BackgroundImageFix"/>
            <feGaussianBlur in="BackgroundImageFix" stdDeviation="15"/>
            <feComposite in2="SourceAlpha" operator="in" result="effect1_backgroundBlur_2001_2497"/>
            <feBlend mode="normal" in="SourceGraphic" in2="effect1_backgroundBlur_2001_2497" result="shape"/>
        </filter>
        <linearGradient id="paint0_linear_2001_2497" x1="49.8069" y1="58.4085" x2="-30.5847" y2="58.2391" gradientUnits="userSpaceOnUse">
            <stop stop-color="#015FC7"/>
            <stop offset="1" stop-color="#52A4FE"/>
        </linearGradient>
        <linearGradient id="paint1_linear_2001_2497" x1="18.9325" y1="6.90477" x2="86.5164" y2="40.623" gradientUnits="userSpaceOnUse">
            <stop stop-color="#5A81FF" stop-opacity="0.9"/>
            <stop offset="0.447036" stop-color="#567DFF" stop-opacity="0.955296"/>
            <stop offset="1" stop-color="#4E78FF" stop-opacity="0.9"/>
        </linearGradient>
        <linearGradient id="paint2_linear_2001_2497" x1="21.1371" y1="-1.39247" x2="80.1978" y2="31.8371" gradientUnits="userSpaceOnUse">
            <stop offset="0.188941" stop-color="#E7F0FF" stop-opacity="0.523483"/>
            <stop offset="0.526042" stop-color="#88A4FF"/>
            <stop offset="1" stop-color="#B4D2FF" stop-opacity="0.1"/>
        </linearGradient>
        <radialGradient id="paint3_radial_2001_2497" cx="0" cy="0" r="1" gradientUnits="userSpaceOnUse" gradientTransform="translate(21.4795 62.9986) rotate(-52.0112) scale(49.6994 80.5905)">
            <stop stop-color="white"/>
            <stop offset="1" stop-color="white" stop-opacity="0"/>
        </radialGradient>
    </defs>
</svg>
