<svg viewBox="0 0 109 78" fill="none" xmlns="http://www.w3.org/2000/svg">
    <path d="M109 47.3636C109 55.0033 102.565 60.9769 95.1398 60.2298L47.5838 55.4446C41.1203 54.7942 36.1931 49.2288 36.1931 42.5784L36.1931 18.3199C36.1931 11.6127 41.2023 6.01945 47.7279 5.44008L95.2839 1.21788C102.659 0.563045 109 6.51702 109 14.0977L109 47.3636Z" fill="#003CFF"/>
    <path d="M109 47.3636C109 55.0033 102.565 60.9769 95.1398 60.2298L47.5838 55.4446C41.1203 54.7942 36.1931 49.2288 36.1931 42.5784L36.1931 18.3199C36.1931 11.6127 41.2023 6.01945 47.7279 5.44008L95.2839 1.21788C102.659 0.563045 109 6.51702 109 14.0977L109 47.3636Z" fill="url(#paint0_linear_2001_2452)"/>
    <g filter="url(#filter0_b_2001_2452)">
        <path d="M0 30.6364C0 22.9967 6.43509 17.0231 13.8602 17.7702L61.4162 22.5554C67.8797 23.2058 72.807 28.7712 72.807 35.4216V59.6801C72.807 66.3872 67.7977 71.9805 61.2721 72.5599L13.7161 76.7821C6.34055 77.4369 0 71.483 0 63.9023V30.6364Z" fill="url(#paint1_linear_2001_2452)" fill-opacity="0.3"/>
    </g>
    <g filter="url(#filter1_b_2001_2452)">
        <path fill-rule="evenodd" clip-rule="evenodd" d="M61.3956 22.7698L13.8396 17.9847C6.53826 17.25 0.210425 23.124 0.210425 30.6364V63.9023C0.210425 71.3566 6.4453 77.2114 13.6979 76.5675L61.2539 72.3452C67.6708 71.7755 72.5965 66.2755 72.5965 59.6801V35.4216C72.5965 28.8821 67.7514 23.4094 61.3956 22.7698ZM13.8602 17.7702C6.43509 17.0231 0 22.9967 0 30.6364V63.9023C0 71.483 6.34055 77.4369 13.7161 76.7821L61.2721 72.5599C67.7977 71.9805 72.807 66.3872 72.807 59.6801V35.4216C72.807 28.7712 67.8797 23.2058 61.4162 22.5554L13.8602 17.7702Z" fill="url(#paint2_linear_2001_2452)"/>
        <path fill-rule="evenodd" clip-rule="evenodd" d="M61.3956 22.7698L13.8396 17.9847C6.53826 17.25 0.210425 23.124 0.210425 30.6364V63.9023C0.210425 71.3566 6.4453 77.2114 13.6979 76.5675L61.2539 72.3452C67.6708 71.7755 72.5965 66.2755 72.5965 59.6801V35.4216C72.5965 28.8821 67.7514 23.4094 61.3956 22.7698ZM13.8602 17.7702C6.43509 17.0231 0 22.9967 0 30.6364V63.9023C0 71.483 6.34055 77.4369 13.7161 76.7821L61.2721 72.5599C67.7977 71.9805 72.807 66.3872 72.807 59.6801V35.4216C72.807 28.7712 67.8797 23.2058 61.4162 22.5554L13.8602 17.7702Z" fill="url(#paint3_radial_2001_2452)"/>
    </g>
    <defs>
        <filter id="filter0_b_2001_2452" x="-12.5967" y="5.11035" width="98.0005" height="84.3184" filterUnits="userSpaceOnUse" color-interpolation-filters="sRGB">
            <feFlood flood-opacity="0" result="BackgroundImageFix"/>
            <feGaussianBlur in="BackgroundImageFix" stdDeviation="6.29834"/>
            <feComposite in2="SourceAlpha" operator="in" result="effect1_backgroundBlur_2001_2452"/>
            <feBlend mode="normal" in="SourceGraphic" in2="effect1_backgroundBlur_2001_2452" result="shape"/>
        </filter>
        <filter id="filter1_b_2001_2452" x="-30" y="-12.293" width="132.807" height="119.125" filterUnits="userSpaceOnUse" color-interpolation-filters="sRGB">
            <feFlood flood-opacity="0" result="BackgroundImageFix"/>
            <feGaussianBlur in="BackgroundImageFix" stdDeviation="15"/>
            <feComposite in2="SourceAlpha" operator="in" result="effect1_backgroundBlur_2001_2452"/>
            <feBlend mode="normal" in="SourceGraphic" in2="effect1_backgroundBlur_2001_2452" result="shape"/>
        </filter>
        <linearGradient id="paint0_linear_2001_2452" x1="36.0822" y1="30.2477" x2="109.249" y2="30.2477" gradientUnits="userSpaceOnUse">
            <stop stop-color="#015FC7"/>
            <stop offset="1" stop-color="#52A4FE"/>
        </linearGradient>
        <linearGradient id="paint1_linear_2001_2452" x1="7.79115" y1="23.162" x2="78.6414" y2="68.3371" gradientUnits="userSpaceOnUse">
            <stop stop-color="#5A81FF" stop-opacity="0.9"/>
            <stop offset="0.447036" stop-color="#567DFF" stop-opacity="0.955296"/>
            <stop offset="1" stop-color="#4E78FF" stop-opacity="0.9"/>
        </linearGradient>
        <linearGradient id="paint2_linear_2001_2452" x1="10.4778" y1="15.5954" x2="70.8024" y2="58.9678" gradientUnits="userSpaceOnUse">
            <stop offset="0.188941" stop-color="#E7F0FF" stop-opacity="0.523483"/>
            <stop offset="0.526042" stop-color="#88A4FF"/>
            <stop offset="1" stop-color="#B4D2FF" stop-opacity="0.1"/>
        </linearGradient>
        <radialGradient id="paint3_radial_2001_2452" cx="0" cy="0" r="1" gradientUnits="userSpaceOnUse" gradientTransform="translate(10.8807 74.8958) rotate(-45.0576) scale(50.9636 85.1785)">
            <stop stop-color="white"/>
            <stop offset="1" stop-color="white" stop-opacity="0"/>
        </radialGradient>
    </defs>
</svg>
