<svg viewBox="0 0 101 90" fill="none" xmlns="http://www.w3.org/2000/svg">
    <g filter="url(#filter0_i_2001_2386)">
        <path d="M99.2793 80.2402V83.5886C99.2793 86.9097 95.7696 90.0013 90.7401 90.0013H9.53996C4.39261 90.0013 1.0039 86.7405 1.00391 83.3555L1.00397 80.3097L99.2793 80.2402Z" fill="url(#paint0_radial_2001_2386)"/>
    </g>
    <g filter="url(#filter1_i_2001_2386)">
        <path d="M43.3834 36.5594C46.7955 33.2094 53.4846 33.2094 56.8966 36.5594L97.4967 76.4218C101.808 80.6547 97.8118 86.7824 90.7401 86.7824H9.53999C2.46832 86.7824 -1.52782 80.6547 2.7834 76.4218L43.3834 36.5594Z" fill="url(#paint1_radial_2001_2386)"/>
        <path d="M43.3834 36.5594C46.7955 33.2094 53.4846 33.2094 56.8966 36.5594L97.4967 76.4218C101.808 80.6547 97.8118 86.7824 90.7401 86.7824H9.53999C2.46832 86.7824 -1.52782 80.6547 2.7834 76.4218L43.3834 36.5594Z" fill="url(#paint2_radial_2001_2386)"/>
    </g>
    <g filter="url(#filter2_f_2001_2386)">
        <path d="M1.01743 79.916C0.723549 83.394 4.28146 86.7823 9.53997 86.7823H90.7401C95.9986 86.7823 99.5566 83.394 99.2627 79.916C98.9955 83.0937 95.5915 86.1829 90.7401 86.1829H9.53997C4.68852 86.1829 1.28461 83.0937 1.01743 79.916Z" fill="url(#paint3_linear_2001_2386)"/>
    </g>
    <g filter="url(#filter3_bi_2001_2386)">
        <path d="M1.00397 63.5372L1.00391 66.3926C1.0039 69.7776 4.39261 73.0384 9.53996 73.0384H90.7401C95.7696 73.0384 99.2793 69.9468 99.2793 66.6257V63.4132C99.2395 66.7241 95.7668 69.8201 90.7402 69.8201H9.54002C4.5762 69.8201 1.12771 66.801 1.00397 63.5372Z" fill="#C8D7FF" fill-opacity="0.4"/>
        <path d="M99.2793 63.2773V63.2981C99.2792 63.2912 99.2794 63.2843 99.2793 63.2773Z" fill="#C8D7FF" fill-opacity="0.4"/>
    </g>
    <g filter="url(#filter4_bi_2001_2386)">
        <path d="M43.3834 19.5965C46.7955 16.2465 53.4846 16.2465 56.8966 19.5965L97.4967 59.4589C101.808 63.6918 97.8118 69.8195 90.7401 69.8195H9.53999C2.46832 69.8195 -1.52782 63.6918 2.7834 59.4589L43.3834 19.5965Z" fill="#C1D0F8" fill-opacity="0.4"/>
    </g>
    <g filter="url(#filter5_f_2001_2386)">
        <path d="M1.01743 62.9531C0.723549 66.4311 4.28146 69.8194 9.53997 69.8194H90.7401C95.9986 69.8194 99.5566 66.4311 99.2627 62.9531C98.9955 66.1308 95.5915 69.22 90.7401 69.22H9.53997C4.68852 69.22 1.28461 66.1308 1.01743 62.9531Z" fill="url(#paint4_linear_2001_2386)"/>
    </g>
    <g filter="url(#filter6_bi_2001_2386)">
        <path d="M1.00348 46.4532L1.00342 49.3086C1.00341 52.6936 4.39212 55.9545 9.53947 55.9545H90.7396C95.7691 55.9545 99.2788 52.8628 99.2788 49.5418V46.3292C99.239 49.6401 95.7663 52.7362 90.7397 52.7362H9.53953C4.57571 52.7362 1.12722 49.717 1.00348 46.4532Z" fill="#C8D7FF" fill-opacity="0.4"/>
        <path d="M99.2788 46.1934V46.2141C99.2787 46.2072 99.2789 46.2003 99.2788 46.1934Z" fill="#C8D7FF" fill-opacity="0.4"/>
    </g>
    <g filter="url(#filter7_bi_2001_2386)">
        <path d="M43.383 2.51255C46.795 -0.83751 53.4841 -0.837521 56.8962 2.51254L97.4962 42.3751C101.807 46.608 97.8113 52.7358 90.7396 52.7358H9.5395C2.46784 52.7358 -1.52831 46.608 2.78291 42.3751L43.383 2.51255Z" fill="#C4D4FD" fill-opacity="0.4"/>
    </g>
    <g filter="url(#filter8_f_2001_2386)">
        <path d="M1.01694 45.8711C0.72306 49.3491 4.28097 52.7374 9.53948 52.7374H90.7396C95.9981 52.7374 99.5561 49.3491 99.2622 45.8711C98.995 49.0488 95.591 52.138 90.7396 52.138H9.53948C4.68803 52.138 1.28412 49.0488 1.01694 45.8711Z" fill="url(#paint5_linear_2001_2386)"/>
    </g>
    <defs>
        <filter id="filter0_i_2001_2386" x="1.00391" y="79.7402" width="98.2754" height="10.2617" filterUnits="userSpaceOnUse" color-interpolation-filters="sRGB">
            <feFlood flood-opacity="0" result="BackgroundImageFix"/>
            <feBlend mode="normal" in="SourceGraphic" in2="BackgroundImageFix" result="shape"/>
            <feColorMatrix in="SourceAlpha" type="matrix" values="0 0 0 0 0 0 0 0 0 0 0 0 0 0 0 0 0 0 127 0" result="hardAlpha"/>
            <feOffset dy="-0.5"/>
            <feGaussianBlur stdDeviation="0.5"/>
            <feComposite in2="hardAlpha" operator="arithmetic" k2="-1" k3="1"/>
            <feColorMatrix type="matrix" values="0 0 0 0 0 0 0 0 0 0 0 0 0 0 0 0 0 0 0.15 0"/>
            <feBlend mode="darken" in2="shape" result="effect1_innerShadow_2001_2386"/>
        </filter>
        <filter id="filter1_i_2001_2386" x="1.00049" y="34.0469" width="98.2793" height="53.2363" filterUnits="userSpaceOnUse" color-interpolation-filters="sRGB">
            <feFlood flood-opacity="0" result="BackgroundImageFix"/>
            <feBlend mode="normal" in="SourceGraphic" in2="BackgroundImageFix" result="shape"/>
            <feColorMatrix in="SourceAlpha" type="matrix" values="0 0 0 0 0 0 0 0 0 0 0 0 0 0 0 0 0 0 127 0" result="hardAlpha"/>
            <feOffset dy="0.5"/>
            <feGaussianBlur stdDeviation="0.5"/>
            <feComposite in2="hardAlpha" operator="arithmetic" k2="-1" k3="1"/>
            <feColorMatrix type="matrix" values="0 0 0 0 0 0 0 0 0 0 0 0 0 0 0 0 0 0 0.1 0"/>
            <feBlend mode="darken" in2="shape" result="effect1_innerShadow_2001_2386"/>
        </filter>
        <filter id="filter2_f_2001_2386" x="0.000488281" y="78.916" width="100.279" height="8.86719" filterUnits="userSpaceOnUse" color-interpolation-filters="sRGB">
            <feFlood flood-opacity="0" result="BackgroundImageFix"/>
            <feBlend mode="normal" in="SourceGraphic" in2="BackgroundImageFix" result="shape"/>
            <feGaussianBlur stdDeviation="0.5" result="effect1_foregroundBlur_2001_2386"/>
        </filter>
        <filter id="filter3_bi_2001_2386" x="-18.9961" y="43.2773" width="138.275" height="49.7617" filterUnits="userSpaceOnUse" color-interpolation-filters="sRGB">
            <feFlood flood-opacity="0" result="BackgroundImageFix"/>
            <feGaussianBlur in="BackgroundImageFix" stdDeviation="10"/>
            <feComposite in2="SourceAlpha" operator="in" result="effect1_backgroundBlur_2001_2386"/>
            <feBlend mode="normal" in="SourceGraphic" in2="effect1_backgroundBlur_2001_2386" result="shape"/>
            <feColorMatrix in="SourceAlpha" type="matrix" values="0 0 0 0 0 0 0 0 0 0 0 0 0 0 0 0 0 0 127 0" result="hardAlpha"/>
            <feOffset dy="-0.5"/>
            <feGaussianBlur stdDeviation="0.5"/>
            <feComposite in2="hardAlpha" operator="arithmetic" k2="-1" k3="1"/>
            <feColorMatrix type="matrix" values="0 0 0 0 0.341176 0 0 0 0 0.352941 0 0 0 0 0.580392 0 0 0 0.25 0"/>
            <feBlend mode="darken" in2="shape" result="effect2_innerShadow_2001_2386"/>
        </filter>
        <filter id="filter4_bi_2001_2386" x="-18.9995" y="-2.91602" width="138.279" height="92.7363" filterUnits="userSpaceOnUse" color-interpolation-filters="sRGB">
            <feFlood flood-opacity="0" result="BackgroundImageFix"/>
            <feGaussianBlur in="BackgroundImageFix" stdDeviation="10"/>
            <feComposite in2="SourceAlpha" operator="in" result="effect1_backgroundBlur_2001_2386"/>
            <feBlend mode="normal" in="SourceGraphic" in2="effect1_backgroundBlur_2001_2386" result="shape"/>
            <feColorMatrix in="SourceAlpha" type="matrix" values="0 0 0 0 0 0 0 0 0 0 0 0 0 0 0 0 0 0 127 0" result="hardAlpha"/>
            <feOffset dy="0.5"/>
            <feGaussianBlur stdDeviation="0.5"/>
            <feComposite in2="hardAlpha" operator="arithmetic" k2="-1" k3="1"/>
            <feColorMatrix type="matrix" values="0 0 0 0 0.342674 0 0 0 0 0.352133 0 0 0 0 0.579167 0 0 0 0.1 0"/>
            <feBlend mode="darken" in2="shape" result="effect2_innerShadow_2001_2386"/>
        </filter>
        <filter id="filter5_f_2001_2386" x="0.000488281" y="61.9531" width="100.279" height="8.86719" filterUnits="userSpaceOnUse" color-interpolation-filters="sRGB">
            <feFlood flood-opacity="0" result="BackgroundImageFix"/>
            <feBlend mode="normal" in="SourceGraphic" in2="BackgroundImageFix" result="shape"/>
            <feGaussianBlur stdDeviation="0.5" result="effect1_foregroundBlur_2001_2386"/>
        </filter>
        <filter id="filter6_bi_2001_2386" x="-18.9966" y="26.1934" width="138.275" height="49.7617" filterUnits="userSpaceOnUse" color-interpolation-filters="sRGB">
            <feFlood flood-opacity="0" result="BackgroundImageFix"/>
            <feGaussianBlur in="BackgroundImageFix" stdDeviation="10"/>
            <feComposite in2="SourceAlpha" operator="in" result="effect1_backgroundBlur_2001_2386"/>
            <feBlend mode="normal" in="SourceGraphic" in2="effect1_backgroundBlur_2001_2386" result="shape"/>
            <feColorMatrix in="SourceAlpha" type="matrix" values="0 0 0 0 0 0 0 0 0 0 0 0 0 0 0 0 0 0 127 0" result="hardAlpha"/>
            <feOffset dy="-0.5"/>
            <feGaussianBlur stdDeviation="0.5"/>
            <feComposite in2="hardAlpha" operator="arithmetic" k2="-1" k3="1"/>
            <feColorMatrix type="matrix" values="0 0 0 0 0.341176 0 0 0 0 0.352941 0 0 0 0 0.580392 0 0 0 0.25 0"/>
            <feBlend mode="darken" in2="shape" result="effect2_innerShadow_2001_2386"/>
        </filter>
        <filter id="filter7_bi_2001_2386" x="-19" y="-20" width="138.279" height="92.7363" filterUnits="userSpaceOnUse" color-interpolation-filters="sRGB">
            <feFlood flood-opacity="0" result="BackgroundImageFix"/>
            <feGaussianBlur in="BackgroundImageFix" stdDeviation="10"/>
            <feComposite in2="SourceAlpha" operator="in" result="effect1_backgroundBlur_2001_2386"/>
            <feBlend mode="normal" in="SourceGraphic" in2="effect1_backgroundBlur_2001_2386" result="shape"/>
            <feColorMatrix in="SourceAlpha" type="matrix" values="0 0 0 0 0 0 0 0 0 0 0 0 0 0 0 0 0 0 127 0" result="hardAlpha"/>
            <feOffset dy="0.5"/>
            <feGaussianBlur stdDeviation="0.5"/>
            <feComposite in2="hardAlpha" operator="arithmetic" k2="-1" k3="1"/>
            <feColorMatrix type="matrix" values="0 0 0 0 0.342674 0 0 0 0 0.352133 0 0 0 0 0.579167 0 0 0 0.1 0"/>
            <feBlend mode="darken" in2="shape" result="effect2_innerShadow_2001_2386"/>
        </filter>
        <filter id="filter8_f_2001_2386" x="0" y="44.8711" width="100.279" height="8.86719" filterUnits="userSpaceOnUse" color-interpolation-filters="sRGB">
            <feFlood flood-opacity="0" result="BackgroundImageFix"/>
            <feBlend mode="normal" in="SourceGraphic" in2="BackgroundImageFix" result="shape"/>
            <feGaussianBlur stdDeviation="0.5" result="effect1_foregroundBlur_2001_2386"/>
        </filter>
        <radialGradient id="paint0_radial_2001_2386" cx="0" cy="0" r="1" gradientUnits="userSpaceOnUse" gradientTransform="translate(16.1718 85.1208) scale(63.4104 12.0609)">
            <stop stop-color="#015FC7"/>
            <stop offset="1" stop-color="#52A4FE"/>
        </radialGradient>
        <radialGradient id="paint1_radial_2001_2386" cx="0" cy="0" r="1" gradientUnits="userSpaceOnUse" gradientTransform="translate(3.12844 60.4146) scale(79.7127 77.5497)">
            <stop stop-color="#D478F4"/>
            <stop offset="1" stop-color="#F6E979"/>
        </radialGradient>
        <radialGradient id="paint2_radial_2001_2386" cx="0" cy="0" r="1" gradientUnits="userSpaceOnUse" gradientTransform="translate(16.1689 60.4146) scale(63.4128 65.1607)">
            <stop stop-color="#015FC7"/>
            <stop offset="1" stop-color="#52A4FE"/>
        </radialGradient>
        <linearGradient id="paint3_linear_2001_2386" x1="-1.97711" y1="66.1633" x2="102.258" y2="66.1633" gradientUnits="userSpaceOnUse">
            <stop stop-color="white" stop-opacity="0.24"/>
            <stop offset="0.130208" stop-color="white" stop-opacity="0.865636"/>
            <stop offset="0.489583" stop-color="white" stop-opacity="0.494792"/>
            <stop offset="1" stop-color="white" stop-opacity="0"/>
        </linearGradient>
        <linearGradient id="paint4_linear_2001_2386" x1="-1.97711" y1="49.2005" x2="102.258" y2="49.2005" gradientUnits="userSpaceOnUse">
            <stop stop-color="#E0E0E0" stop-opacity="0.24"/>
            <stop offset="0.130208" stop-color="white" stop-opacity="0.865636"/>
            <stop offset="0.489583" stop-color="white" stop-opacity="0.494792"/>
            <stop offset="1" stop-color="white" stop-opacity="0"/>
        </linearGradient>
        <linearGradient id="paint5_linear_2001_2386" x1="-1.97759" y1="32.1184" x2="102.257" y2="32.1184" gradientUnits="userSpaceOnUse">
            <stop stop-color="white" stop-opacity="0.24"/>
            <stop offset="0.130208" stop-color="white" stop-opacity="0.865636"/>
            <stop offset="0.489583" stop-color="white" stop-opacity="0.494792"/>
            <stop offset="1" stop-color="white" stop-opacity="0"/>
        </linearGradient>
    </defs>
</svg>
