<svg viewBox="0 0 79 79" fill="none" xmlns="http://www.w3.org/2000/svg">
    <path d="M0 19.7492C0 16.4769 2.65271 13.8242 5.925 13.8242H45.03C48.3023 13.8242 50.955 16.4769 50.955 19.7492V73.0742C50.955 76.3465 48.3023 78.9992 45.03 78.9992H5.925C2.65271 78.9992 0 76.3465 0 73.0742V19.7492Z" fill="#003CFF"/>
    <path d="M0 19.7492C0 16.4769 2.65271 13.8242 5.925 13.8242H45.03C48.3023 13.8242 50.955 16.4769 50.955 19.7492V73.0742C50.955 76.3465 48.3023 78.9992 45.03 78.9992H5.925C2.65271 78.9992 0 76.3465 0 73.0742V19.7492Z" fill="url(#paint0_linear_2001_2516)"/>
    <g filter="url(#filter0_b_2001_2516)">
        <path d="M76.2919 2.70831C79.9029 6.31939 79.9029 12.1741 76.2919 15.7852L69.7787 22.2984L42.1415 49.9356C40.6602 51.4169 38.8041 52.4678 36.7718 52.9758L26.1796 55.6239C24.4866 56.0471 22.953 54.5136 23.3763 52.8205L26.0243 42.2284C26.5324 40.1961 27.5833 38.34 29.0646 36.8587L56.7018 9.22152L63.215 2.70831C66.8261 -0.90277 72.6808 -0.90277 76.2919 2.70831Z" fill="url(#paint1_linear_2001_2516)" fill-opacity="0.3"/>
    </g>
    <g filter="url(#filter1_b_2001_2516)">
        <path fill-rule="evenodd" clip-rule="evenodd" d="M76.1522 15.6455C79.6862 12.1116 79.6862 6.38191 76.1522 2.84796C72.6183 -0.685988 66.8886 -0.685988 63.3546 2.84796L29.2043 36.9983C27.7483 38.4543 26.7153 40.2787 26.2159 42.2763L23.5679 52.8684C23.1808 54.4168 24.5833 55.8194 26.1317 55.4323L36.7239 52.7842C38.7215 52.2848 40.5458 51.2519 42.0018 49.7959L76.1522 15.6455ZM76.2919 15.7852C79.9029 12.1741 79.9029 6.31939 76.2919 2.70831C72.6808 -0.90277 66.8261 -0.90277 63.215 2.70831L29.0646 36.8587C27.5833 38.34 26.5324 40.1961 26.0243 42.2284L23.3763 52.8205C22.953 54.5136 24.4866 56.0471 26.1796 55.6239L36.7718 52.9758C38.8041 52.4678 40.6602 51.4169 42.1415 49.9356L76.2919 15.7852Z" fill="url(#paint2_linear_2001_2516)"/>
        <path fill-rule="evenodd" clip-rule="evenodd" d="M76.1522 15.6455C79.6862 12.1116 79.6862 6.38191 76.1522 2.84796C72.6183 -0.685988 66.8886 -0.685988 63.3546 2.84796L29.2043 36.9983C27.7483 38.4543 26.7153 40.2787 26.2159 42.2763L23.5679 52.8684C23.1808 54.4168 24.5833 55.8194 26.1317 55.4323L36.7239 52.7842C38.7215 52.2848 40.5458 51.2519 42.0018 49.7959L76.1522 15.6455ZM76.2919 15.7852C79.9029 12.1741 79.9029 6.31939 76.2919 2.70831C72.6808 -0.90277 66.8261 -0.90277 63.215 2.70831L29.0646 36.8587C27.5833 38.34 26.5324 40.1961 26.0243 42.2284L23.3763 52.8205C22.953 54.5136 24.4866 56.0471 26.1796 55.6239L36.7718 52.9758C38.8041 52.4678 40.6602 51.4169 42.1415 49.9356L76.2919 15.7852Z" fill="url(#paint3_radial_2001_2516)"/>
    </g>
    <path d="M27.0706 53.3496C26.196 53.5762 25.3997 52.7799 25.6263 51.9053L26.6425 47.9828C26.8724 47.0955 27.9794 46.7939 28.6275 47.442L31.5338 50.3483C32.182 50.9965 31.8804 52.1035 30.9931 52.3334L27.0706 53.3496Z" fill="white"/>
    <defs>
        <filter id="filter0_b_2001_2516" x="11.4552" y="-11.85" width="79.3948" height="79.3953" filterUnits="userSpaceOnUse" color-interpolation-filters="sRGB">
            <feFlood flood-opacity="0" result="BackgroundImageFix"/>
            <feGaussianBlur in="BackgroundImageFix" stdDeviation="5.925"/>
            <feComposite in2="SourceAlpha" operator="in" result="effect1_backgroundBlur_2001_2516"/>
            <feBlend mode="normal" in="SourceGraphic" in2="effect1_backgroundBlur_2001_2516" result="shape"/>
        </filter>
        <filter id="filter1_b_2001_2516" x="-6.69482" y="-30" width="115.695" height="115.695" filterUnits="userSpaceOnUse" color-interpolation-filters="sRGB">
            <feFlood flood-opacity="0" result="BackgroundImageFix"/>
            <feGaussianBlur in="BackgroundImageFix" stdDeviation="15"/>
            <feComposite in2="SourceAlpha" operator="in" result="effect1_backgroundBlur_2001_2516"/>
            <feBlend mode="normal" in="SourceGraphic" in2="effect1_backgroundBlur_2001_2516" result="shape"/>
        </filter>
        <linearGradient id="paint0_linear_2001_2516" x1="51.0326" y1="46.9443" x2="-15.0724" y2="46.7757" gradientUnits="userSpaceOnUse">
            <stop stop-color="#015FC7"/>
            <stop offset="1" stop-color="#52A4FE"/>
        </linearGradient>
        <linearGradient id="paint1_linear_2001_2516" x1="29.2652" y1="5.13853" x2="89.3805" y2="36.2655" gradientUnits="userSpaceOnUse">
            <stop stop-color="#5A81FF" stop-opacity="0.9"/>
            <stop offset="0.447036" stop-color="#567DFF" stop-opacity="0.955296"/>
            <stop offset="1" stop-color="#4E78FF" stop-opacity="0.9"/>
        </linearGradient>
        <linearGradient id="paint2_linear_2001_2516" x1="31.3203" y1="-1.98911" x2="83.5251" y2="28.4914" gradientUnits="userSpaceOnUse">
            <stop offset="0.188941" stop-color="#E7F0FF" stop-opacity="0.523483"/>
            <stop offset="0.526042" stop-color="#88A4FF"/>
            <stop offset="1" stop-color="#B4D2FF" stop-opacity="0.1"/>
        </linearGradient>
        <radialGradient id="paint3_radial_2001_2516" cx="0" cy="0" r="1" gradientUnits="userSpaceOnUse" gradientTransform="translate(31.6286 53.8717) rotate(-50.9773) scale(43.7389 71.518)">
            <stop stop-color="white"/>
            <stop offset="1" stop-color="white" stop-opacity="0"/>
        </radialGradient>
    </defs>
</svg>
