<svg viewBox="0 0 105 91" fill="none" xmlns="http://www.w3.org/2000/svg">
    <g filter="url(#filter0_i_2001_2421)">
        <path d="M66.0277 38.0521C66.0277 45.7334 59.9711 51.9603 52.5 51.9603C45.0289 51.9603 38.9724 45.7334 38.9724 38.0521L1 34.4883V38.0521C0.999998 67.2949 24.0573 91.0009 52.5 91.0009C80.9427 91.0009 104 67.2949 104 38.0521V34.4883L66.0277 38.0521Z" fill="url(#paint0_radial_2001_2421)"/>
    </g>
    <g filter="url(#filter1_i_2001_2421)">
        <path fill-rule="evenodd" clip-rule="evenodd" d="M52.5 48.5293C59.9711 48.5293 66.0277 42.3024 66.0277 34.6211L104 34.6211C104 63.8639 80.9427 87.5699 52.5 87.5699C24.0573 87.5698 0.999998 63.8639 1 34.6211L38.9724 34.6211C38.9724 42.3024 45.0289 48.5293 52.5 48.5293Z" fill="url(#paint1_radial_2001_2421)"/>
    </g>
    <g filter="url(#filter2_f_2001_2421)">
        <path d="M1.00236 34.4883H1C1 63.7311 24.0573 87.437 52.5 87.437C80.9427 87.437 104 63.7311 104 34.4883H103.998C103.732 63.4966 80.7774 86.6734 52.5 86.6733C24.2226 86.6733 1.26815 63.4966 1.00236 34.4883Z" fill="url(#paint2_linear_2001_2421)"/>
    </g>
    <g filter="url(#filter3_bi_2001_2421)">
        <path fill-rule="evenodd" clip-rule="evenodd" d="M52.5 32.1758C59.9711 32.1758 66.0277 25.9489 66.0277 18.2676L104 18.2676C104 47.5104 80.9427 71.2163 52.5 71.2163C24.0573 71.2163 0.999998 47.5104 1 18.2676L38.9724 18.2676C38.9724 25.9489 45.0289 32.1758 52.5 32.1758Z" fill="#C8D7FF" fill-opacity="0.4"/>
    </g>
    <g filter="url(#filter4_bi_2001_2421)">
        <path d="M1 22.1498V18.5859C0.999998 47.8287 24.0573 71.5347 52.5 71.5347C80.9427 71.5347 104 47.8287 104 18.5859V22.1498C104 51.3926 80.9427 75.0986 52.5 75.0986C24.0573 75.0986 0.999998 51.3926 1 22.1498Z" fill="#C8D7FF" fill-opacity="0.4"/>
    </g>
    <g filter="url(#filter5_f_2001_2421)">
        <path d="M1.00236 18.2676H1C1 47.5104 24.0573 71.2163 52.5 71.2163C80.9427 71.2163 104 47.5104 104 18.2676H103.998C103.732 47.2759 80.7774 70.4526 52.5 70.4526C24.2226 70.4526 1.26815 47.2759 1.00236 18.2676Z" fill="url(#paint3_linear_2001_2421)"/>
    </g>
    <g filter="url(#filter6_bi_2001_2421)">
        <path fill-rule="evenodd" clip-rule="evenodd" d="M52.5 14.9082C59.9711 14.9082 66.0277 8.68129 66.0277 1.00001L104 1.00001C104 30.2428 80.9427 53.9488 52.5 53.9488C24.0573 53.9488 0.999998 30.2428 1 1L38.9724 1C38.9724 8.68129 45.0289 14.9082 52.5 14.9082Z" fill="#C8D7FF" fill-opacity="0.4"/>
    </g>
    <g filter="url(#filter7_bi_2001_2421)">
        <path d="M1 4.56385V1C0.999998 30.2428 24.0573 53.9488 52.5 53.9488C80.9427 53.9488 104 30.2428 104 1V4.56386C104 33.8067 80.9427 57.5126 52.5 57.5126C24.0573 57.5126 0.999998 33.8066 1 4.56385Z" fill="#C8D7FF" fill-opacity="0.4"/>
    </g>
    <g filter="url(#filter8_f_2001_2421)">
        <path d="M1.00236 1H1C1 30.2428 24.0573 53.9488 52.5 53.9488C80.9427 53.9488 104 30.2428 104 1.00001H103.998C103.732 30.0083 80.7774 53.1851 52.5 53.1851C24.2226 53.1851 1.26815 30.0083 1.00236 1Z" fill="url(#paint4_linear_2001_2421)"/>
    </g>
    <defs>
        <filter id="filter0_i_2001_2421" x="1" y="33.9883" width="103" height="57.0117" filterUnits="userSpaceOnUse" color-interpolation-filters="sRGB">
            <feFlood flood-opacity="0" result="BackgroundImageFix"/>
            <feBlend mode="normal" in="SourceGraphic" in2="BackgroundImageFix" result="shape"/>
            <feColorMatrix in="SourceAlpha" type="matrix" values="0 0 0 0 0 0 0 0 0 0 0 0 0 0 0 0 0 0 127 0" result="hardAlpha"/>
            <feOffset dy="-0.5"/>
            <feGaussianBlur stdDeviation="0.5"/>
            <feComposite in2="hardAlpha" operator="arithmetic" k2="-1" k3="1"/>
            <feColorMatrix type="matrix" values="0 0 0 0 0 0 0 0 0 0 0 0 0 0 0 0 0 0 0.15 0"/>
            <feBlend mode="darken" in2="shape" result="effect1_innerShadow_2001_2421"/>
        </filter>
        <filter id="filter1_i_2001_2421" x="1" y="34.6211" width="103" height="53.4492" filterUnits="userSpaceOnUse" color-interpolation-filters="sRGB">
            <feFlood flood-opacity="0" result="BackgroundImageFix"/>
            <feBlend mode="normal" in="SourceGraphic" in2="BackgroundImageFix" result="shape"/>
            <feColorMatrix in="SourceAlpha" type="matrix" values="0 0 0 0 0 0 0 0 0 0 0 0 0 0 0 0 0 0 127 0" result="hardAlpha"/>
            <feOffset dy="0.5"/>
            <feGaussianBlur stdDeviation="0.5"/>
            <feComposite in2="hardAlpha" operator="arithmetic" k2="-1" k3="1"/>
            <feColorMatrix type="matrix" values="0 0 0 0 0 0 0 0 0 0 0 0 0 0 0 0 0 0 0.1 0"/>
            <feBlend mode="darken" in2="shape" result="effect1_innerShadow_2001_2421"/>
        </filter>
        <filter id="filter2_f_2001_2421" x="0" y="33.4883" width="105" height="54.9492" filterUnits="userSpaceOnUse" color-interpolation-filters="sRGB">
            <feFlood flood-opacity="0" result="BackgroundImageFix"/>
            <feBlend mode="normal" in="SourceGraphic" in2="BackgroundImageFix" result="shape"/>
            <feGaussianBlur stdDeviation="0.5" result="effect1_foregroundBlur_2001_2421"/>
        </filter>
        <filter id="filter3_bi_2001_2421" x="-19" y="-1.73242" width="143" height="92.9492" filterUnits="userSpaceOnUse" color-interpolation-filters="sRGB">
            <feFlood flood-opacity="0" result="BackgroundImageFix"/>
            <feGaussianBlur in="BackgroundImageFix" stdDeviation="10"/>
            <feComposite in2="SourceAlpha" operator="in" result="effect1_backgroundBlur_2001_2421"/>
            <feBlend mode="normal" in="SourceGraphic" in2="effect1_backgroundBlur_2001_2421" result="shape"/>
            <feColorMatrix in="SourceAlpha" type="matrix" values="0 0 0 0 0 0 0 0 0 0 0 0 0 0 0 0 0 0 127 0" result="hardAlpha"/>
            <feOffset dy="0.5"/>
            <feGaussianBlur stdDeviation="0.5"/>
            <feComposite in2="hardAlpha" operator="arithmetic" k2="-1" k3="1"/>
            <feColorMatrix type="matrix" values="0 0 0 0 0.342674 0 0 0 0 0.352133 0 0 0 0 0.579167 0 0 0 0.1 0"/>
            <feBlend mode="darken" in2="shape" result="effect2_innerShadow_2001_2421"/>
        </filter>
        <filter id="filter4_bi_2001_2421" x="-19" y="-1.41406" width="143" height="96.5117" filterUnits="userSpaceOnUse" color-interpolation-filters="sRGB">
            <feFlood flood-opacity="0" result="BackgroundImageFix"/>
            <feGaussianBlur in="BackgroundImageFix" stdDeviation="10"/>
            <feComposite in2="SourceAlpha" operator="in" result="effect1_backgroundBlur_2001_2421"/>
            <feBlend mode="normal" in="SourceGraphic" in2="effect1_backgroundBlur_2001_2421" result="shape"/>
            <feColorMatrix in="SourceAlpha" type="matrix" values="0 0 0 0 0 0 0 0 0 0 0 0 0 0 0 0 0 0 127 0" result="hardAlpha"/>
            <feOffset dy="-0.5"/>
            <feGaussianBlur stdDeviation="0.5"/>
            <feComposite in2="hardAlpha" operator="arithmetic" k2="-1" k3="1"/>
            <feColorMatrix type="matrix" values="0 0 0 0 0.341176 0 0 0 0 0.352941 0 0 0 0 0.580392 0 0 0 0.25 0"/>
            <feBlend mode="darken" in2="shape" result="effect2_innerShadow_2001_2421"/>
        </filter>
        <filter id="filter5_f_2001_2421" x="0" y="17.2676" width="105" height="54.9492" filterUnits="userSpaceOnUse" color-interpolation-filters="sRGB">
            <feFlood flood-opacity="0" result="BackgroundImageFix"/>
            <feBlend mode="normal" in="SourceGraphic" in2="BackgroundImageFix" result="shape"/>
            <feGaussianBlur stdDeviation="0.5" result="effect1_foregroundBlur_2001_2421"/>
        </filter>
        <filter id="filter6_bi_2001_2421" x="-19" y="-19" width="143" height="92.9492" filterUnits="userSpaceOnUse" color-interpolation-filters="sRGB">
            <feFlood flood-opacity="0" result="BackgroundImageFix"/>
            <feGaussianBlur in="BackgroundImageFix" stdDeviation="10"/>
            <feComposite in2="SourceAlpha" operator="in" result="effect1_backgroundBlur_2001_2421"/>
            <feBlend mode="normal" in="SourceGraphic" in2="effect1_backgroundBlur_2001_2421" result="shape"/>
            <feColorMatrix in="SourceAlpha" type="matrix" values="0 0 0 0 0 0 0 0 0 0 0 0 0 0 0 0 0 0 127 0" result="hardAlpha"/>
            <feOffset dy="0.5"/>
            <feGaussianBlur stdDeviation="0.5"/>
            <feComposite in2="hardAlpha" operator="arithmetic" k2="-1" k3="1"/>
            <feColorMatrix type="matrix" values="0 0 0 0 0.342674 0 0 0 0 0.352133 0 0 0 0 0.579167 0 0 0 0.1 0"/>
            <feBlend mode="darken" in2="shape" result="effect2_innerShadow_2001_2421"/>
        </filter>
        <filter id="filter7_bi_2001_2421" x="-19" y="-19" width="143" height="96.5117" filterUnits="userSpaceOnUse" color-interpolation-filters="sRGB">
            <feFlood flood-opacity="0" result="BackgroundImageFix"/>
            <feGaussianBlur in="BackgroundImageFix" stdDeviation="10"/>
            <feComposite in2="SourceAlpha" operator="in" result="effect1_backgroundBlur_2001_2421"/>
            <feBlend mode="normal" in="SourceGraphic" in2="effect1_backgroundBlur_2001_2421" result="shape"/>
            <feColorMatrix in="SourceAlpha" type="matrix" values="0 0 0 0 0 0 0 0 0 0 0 0 0 0 0 0 0 0 127 0" result="hardAlpha"/>
            <feOffset dy="-0.5"/>
            <feGaussianBlur stdDeviation="0.5"/>
            <feComposite in2="hardAlpha" operator="arithmetic" k2="-1" k3="1"/>
            <feColorMatrix type="matrix" values="0 0 0 0 0.341176 0 0 0 0 0.352941 0 0 0 0 0.580392 0 0 0 0.25 0"/>
            <feBlend mode="darken" in2="shape" result="effect2_innerShadow_2001_2421"/>
        </filter>
        <filter id="filter8_f_2001_2421" x="0" y="0" width="105" height="54.9492" filterUnits="userSpaceOnUse" color-interpolation-filters="sRGB">
            <feFlood flood-opacity="0" result="BackgroundImageFix"/>
            <feBlend mode="normal" in="SourceGraphic" in2="BackgroundImageFix" result="shape"/>
            <feGaussianBlur stdDeviation="0.5" result="effect1_foregroundBlur_2001_2421"/>
        </filter>
        <radialGradient id="paint0_radial_2001_2421" cx="0" cy="0" r="1" gradientUnits="userSpaceOnUse" gradientTransform="translate(16.8971 62.7446) scale(66.4589 69.8277)">
            <stop stop-color="#015FC7"/>
            <stop offset="1" stop-color="#52A4FE"/>
        </radialGradient>
        <radialGradient id="paint1_radial_2001_2421" cx="0" cy="0" r="1" gradientUnits="userSpaceOnUse" gradientTransform="translate(16.8971 61.0955) scale(66.4589 65.4242)">
            <stop stop-color="#015FC7"/>
            <stop offset="1" stop-color="#52A4FE"/>
        </radialGradient>
        <linearGradient id="paint2_linear_2001_2421" x1="-2.12062" y1="-71.5647" x2="107.121" y2="-71.5647" gradientUnits="userSpaceOnUse">
            <stop stop-color="white" stop-opacity="0.24"/>
            <stop offset="0.130208" stop-color="white" stop-opacity="0.865636"/>
            <stop offset="0.489583" stop-color="white" stop-opacity="0.494792"/>
            <stop offset="1" stop-color="white" stop-opacity="0"/>
        </linearGradient>
        <linearGradient id="paint3_linear_2001_2421" x1="-2.12062" y1="-87.7854" x2="107.121" y2="-87.7854" gradientUnits="userSpaceOnUse">
            <stop stop-color="white" stop-opacity="0.24"/>
            <stop offset="0.130208" stop-color="white" stop-opacity="0.865636"/>
            <stop offset="0.489583" stop-color="white" stop-opacity="0.494792"/>
            <stop offset="1" stop-color="white" stop-opacity="0"/>
        </linearGradient>
        <linearGradient id="paint4_linear_2001_2421" x1="-2.12062" y1="-105.053" x2="107.121" y2="-105.053" gradientUnits="userSpaceOnUse">
            <stop stop-color="white" stop-opacity="0.24"/>
            <stop offset="0.130208" stop-color="white" stop-opacity="0.865636"/>
            <stop offset="0.489583" stop-color="white" stop-opacity="0.494792"/>
            <stop offset="1" stop-color="white" stop-opacity="0"/>
        </linearGradient>
    </defs>
</svg>
