<svg viewBox="0 0 75 78" fill="none" xmlns="http://www.w3.org/2000/svg">
    <path d="M18.2925 31.3902C18.2925 24.8234 23.4112 19.5 29.7254 19.5H44.8169C51.1311 19.5 56.2498 24.8234 56.2498 31.3902V47.0854C56.2498 53.6522 51.1311 58.9756 44.8169 58.9756H29.7254C23.4112 58.9756 18.2925 53.6522 18.2925 47.0854V31.3902Z" fill="#003CFF"/>
    <path d="M18.2925 31.3902C18.2925 24.8234 23.4112 19.5 29.7254 19.5H44.8169C51.1311 19.5 56.2498 24.8234 56.2498 31.3902V47.0854C56.2498 53.6522 51.1311 58.9756 44.8169 58.9756H29.7254C23.4112 58.9756 18.2925 53.6522 18.2925 47.0854V31.3902Z" fill="url(#paint0_linear_2001_2472)"/>
    <g filter="url(#filter0_b_2001_2472)">
        <path d="M0 7.13415C0 3.19407 3.07122 0 6.85976 0H27.439C31.2276 0 34.2988 3.19407 34.2988 7.13415V28.5366C34.2988 32.4767 31.2276 35.6707 27.439 35.6707H6.85976C3.07122 35.6707 0 32.4767 0 28.5366V7.13415Z" fill="url(#paint1_linear_2001_2472)" fill-opacity="0.3"/>
    </g>
    <g filter="url(#filter1_b_2001_2472)">
        <path fill-rule="evenodd" clip-rule="evenodd" d="M27.439 0.237805H6.85976C3.1975 0.237805 0.228659 3.3254 0.228659 7.13415V28.5366C0.228659 32.3453 3.1975 35.4329 6.85976 35.4329H27.439C31.1013 35.4329 34.0701 32.3453 34.0701 28.5366V7.13415C34.0701 3.3254 31.1013 0.237805 27.439 0.237805ZM6.85976 0C3.07122 0 0 3.19407 0 7.13415V28.5366C0 32.4767 3.07122 35.6707 6.85976 35.6707H27.439C31.2276 35.6707 34.2988 32.4767 34.2988 28.5366V7.13415C34.2988 3.19407 31.2276 0 27.439 0H6.85976Z" fill="url(#paint2_linear_2001_2472)"/>
        <path fill-rule="evenodd" clip-rule="evenodd" d="M27.439 0.237805H6.85976C3.1975 0.237805 0.228659 3.3254 0.228659 7.13415V28.5366C0.228659 32.3453 3.1975 35.4329 6.85976 35.4329H27.439C31.1013 35.4329 34.0701 32.3453 34.0701 28.5366V7.13415C34.0701 3.3254 31.1013 0.237805 27.439 0.237805ZM6.85976 0C3.07122 0 0 3.19407 0 7.13415V28.5366C0 32.4767 3.07122 35.6707 6.85976 35.6707H27.439C31.2276 35.6707 34.2988 32.4767 34.2988 28.5366V7.13415C34.2988 3.19407 31.2276 0 27.439 0H6.85976Z" fill="url(#paint3_radial_2001_2472)"/>
    </g>
    <g filter="url(#filter2_b_2001_2472)">
        <path d="M40.7012 7.13415C40.7012 3.19407 43.7724 0 47.5609 0H68.1402C71.9287 0 75 3.19407 75 7.13415V28.5366C75 32.4767 71.9287 35.6707 68.1402 35.6707H47.5609C43.7724 35.6707 40.7012 32.4767 40.7012 28.5366V7.13415Z" fill="url(#paint4_linear_2001_2472)" fill-opacity="0.3"/>
    </g>
    <g filter="url(#filter3_b_2001_2472)">
        <path fill-rule="evenodd" clip-rule="evenodd" d="M68.1402 0.237805H47.5609C43.8987 0.237805 40.9298 3.3254 40.9298 7.13415V28.5366C40.9298 32.3453 43.8987 35.4329 47.5609 35.4329H68.1402C71.8024 35.4329 74.7713 32.3453 74.7713 28.5366V7.13415C74.7713 3.3254 71.8025 0.237805 68.1402 0.237805ZM47.5609 0C43.7724 0 40.7012 3.19407 40.7012 7.13415V28.5366C40.7012 32.4767 43.7724 35.6707 47.5609 35.6707H68.1402C71.9287 35.6707 75 32.4767 75 28.5366V7.13415C75 3.19407 71.9287 0 68.1402 0H47.5609Z" fill="url(#paint5_linear_2001_2472)"/>
        <path fill-rule="evenodd" clip-rule="evenodd" d="M68.1402 0.237805H47.5609C43.8987 0.237805 40.9298 3.3254 40.9298 7.13415V28.5366C40.9298 32.3453 43.8987 35.4329 47.5609 35.4329H68.1402C71.8024 35.4329 74.7713 32.3453 74.7713 28.5366V7.13415C74.7713 3.3254 71.8025 0.237805 68.1402 0.237805ZM47.5609 0C43.7724 0 40.7012 3.19407 40.7012 7.13415V28.5366C40.7012 32.4767 43.7724 35.6707 47.5609 35.6707H68.1402C71.9287 35.6707 75 32.4767 75 28.5366V7.13415C75 3.19407 71.9287 0 68.1402 0H47.5609Z" fill="url(#paint6_radial_2001_2472)"/>
    </g>
    <g filter="url(#filter4_b_2001_2472)">
        <path d="M40.7012 49.4623C40.7012 45.5222 43.7724 42.3281 47.5609 42.3281H68.1402C71.9287 42.3281 75 45.5222 75 49.4623V70.8647C75 74.8048 71.9287 77.9989 68.1402 77.9989H47.5609C43.7724 77.9989 40.7012 74.8048 40.7012 70.8647V49.4623Z" fill="url(#paint7_linear_2001_2472)" fill-opacity="0.3"/>
    </g>
    <g filter="url(#filter5_b_2001_2472)">
        <path fill-rule="evenodd" clip-rule="evenodd" d="M68.1402 42.5659H47.5609C43.8987 42.5659 40.9298 45.6535 40.9298 49.4623V70.8647C40.9298 74.6735 43.8987 77.7611 47.5609 77.7611H68.1402C71.8024 77.7611 74.7713 74.6735 74.7713 70.8647V49.4623C74.7713 45.6535 71.8025 42.5659 68.1402 42.5659ZM47.5609 42.3281C43.7724 42.3281 40.7012 45.5222 40.7012 49.4623V70.8647C40.7012 74.8048 43.7724 77.9989 47.5609 77.9989H68.1402C71.9287 77.9989 75 74.8048 75 70.8647V49.4623C75 45.5222 71.9287 42.3281 68.1402 42.3281H47.5609Z" fill="url(#paint8_linear_2001_2472)"/>
        <path fill-rule="evenodd" clip-rule="evenodd" d="M68.1402 42.5659H47.5609C43.8987 42.5659 40.9298 45.6535 40.9298 49.4623V70.8647C40.9298 74.6735 43.8987 77.7611 47.5609 77.7611H68.1402C71.8024 77.7611 74.7713 74.6735 74.7713 70.8647V49.4623C74.7713 45.6535 71.8025 42.5659 68.1402 42.5659ZM47.5609 42.3281C43.7724 42.3281 40.7012 45.5222 40.7012 49.4623V70.8647C40.7012 74.8048 43.7724 77.9989 47.5609 77.9989H68.1402C71.9287 77.9989 75 74.8048 75 70.8647V49.4623C75 45.5222 71.9287 42.3281 68.1402 42.3281H47.5609Z" fill="url(#paint9_radial_2001_2472)"/>
    </g>
    <g filter="url(#filter6_b_2001_2472)">
        <path d="M0 49.4623C0 45.5222 3.07122 42.3281 6.85976 42.3281H27.439C31.2276 42.3281 34.2988 45.5222 34.2988 49.4623V70.8647C34.2988 74.8048 31.2276 77.9989 27.439 77.9989H6.85976C3.07122 77.9989 0 74.8048 0 70.8647V49.4623Z" fill="url(#paint10_linear_2001_2472)" fill-opacity="0.3"/>
    </g>
    <g filter="url(#filter7_b_2001_2472)">
        <path fill-rule="evenodd" clip-rule="evenodd" d="M27.439 42.5659H6.85976C3.1975 42.5659 0.228659 45.6535 0.228659 49.4623V70.8647C0.228659 74.6735 3.1975 77.7611 6.85976 77.7611H27.439C31.1013 77.7611 34.0701 74.6735 34.0701 70.8647V49.4623C34.0701 45.6535 31.1013 42.5659 27.439 42.5659ZM6.85976 42.3281C3.07122 42.3281 0 45.5222 0 49.4623V70.8647C0 74.8048 3.07122 77.9989 6.85976 77.9989H27.439C31.2276 77.9989 34.2988 74.8048 34.2988 70.8647V49.4623C34.2988 45.5222 31.2276 42.3281 27.439 42.3281H6.85976Z" fill="url(#paint11_linear_2001_2472)"/>
        <path fill-rule="evenodd" clip-rule="evenodd" d="M27.439 42.5659H6.85976C3.1975 42.5659 0.228659 45.6535 0.228659 49.4623V70.8647C0.228659 74.6735 3.1975 77.7611 6.85976 77.7611H27.439C31.1013 77.7611 34.0701 74.6735 34.0701 70.8647V49.4623C34.0701 45.6535 31.1013 42.5659 27.439 42.5659ZM6.85976 42.3281C3.07122 42.3281 0 45.5222 0 49.4623V70.8647C0 74.8048 3.07122 77.9989 6.85976 77.9989H27.439C31.2276 77.9989 34.2988 74.8048 34.2988 70.8647V49.4623C34.2988 45.5222 31.2276 42.3281 27.439 42.3281H6.85976Z" fill="url(#paint12_radial_2001_2472)"/>
    </g>
    <defs>
        <filter id="filter0_b_2001_2472" x="-13.7195" y="-13.7195" width="61.7379" height="63.1089" filterUnits="userSpaceOnUse" color-interpolation-filters="sRGB">
            <feFlood flood-opacity="0" result="BackgroundImageFix"/>
            <feGaussianBlur in="BackgroundImageFix" stdDeviation="6.85976"/>
            <feComposite in2="SourceAlpha" operator="in" result="effect1_backgroundBlur_2001_2472"/>
            <feBlend mode="normal" in="SourceGraphic" in2="effect1_backgroundBlur_2001_2472" result="shape"/>
        </filter>
        <filter id="filter1_b_2001_2472" x="-30" y="-30" width="94.2988" height="95.6699" filterUnits="userSpaceOnUse" color-interpolation-filters="sRGB">
            <feFlood flood-opacity="0" result="BackgroundImageFix"/>
            <feGaussianBlur in="BackgroundImageFix" stdDeviation="15"/>
            <feComposite in2="SourceAlpha" operator="in" result="effect1_backgroundBlur_2001_2472"/>
            <feBlend mode="normal" in="SourceGraphic" in2="effect1_backgroundBlur_2001_2472" result="shape"/>
        </filter>
        <filter id="filter2_b_2001_2472" x="26.9817" y="-13.7195" width="61.7379" height="63.1089" filterUnits="userSpaceOnUse" color-interpolation-filters="sRGB">
            <feFlood flood-opacity="0" result="BackgroundImageFix"/>
            <feGaussianBlur in="BackgroundImageFix" stdDeviation="6.85976"/>
            <feComposite in2="SourceAlpha" operator="in" result="effect1_backgroundBlur_2001_2472"/>
            <feBlend mode="normal" in="SourceGraphic" in2="effect1_backgroundBlur_2001_2472" result="shape"/>
        </filter>
        <filter id="filter3_b_2001_2472" x="10.7012" y="-30" width="94.2988" height="95.6699" filterUnits="userSpaceOnUse" color-interpolation-filters="sRGB">
            <feFlood flood-opacity="0" result="BackgroundImageFix"/>
            <feGaussianBlur in="BackgroundImageFix" stdDeviation="15"/>
            <feComposite in2="SourceAlpha" operator="in" result="effect1_backgroundBlur_2001_2472"/>
            <feBlend mode="normal" in="SourceGraphic" in2="effect1_backgroundBlur_2001_2472" result="shape"/>
        </filter>
        <filter id="filter4_b_2001_2472" x="26.9817" y="28.6086" width="61.7379" height="63.1089" filterUnits="userSpaceOnUse" color-interpolation-filters="sRGB">
            <feFlood flood-opacity="0" result="BackgroundImageFix"/>
            <feGaussianBlur in="BackgroundImageFix" stdDeviation="6.85976"/>
            <feComposite in2="SourceAlpha" operator="in" result="effect1_backgroundBlur_2001_2472"/>
            <feBlend mode="normal" in="SourceGraphic" in2="effect1_backgroundBlur_2001_2472" result="shape"/>
        </filter>
        <filter id="filter5_b_2001_2472" x="10.7012" y="12.3281" width="94.2988" height="95.6699" filterUnits="userSpaceOnUse" color-interpolation-filters="sRGB">
            <feFlood flood-opacity="0" result="BackgroundImageFix"/>
            <feGaussianBlur in="BackgroundImageFix" stdDeviation="15"/>
            <feComposite in2="SourceAlpha" operator="in" result="effect1_backgroundBlur_2001_2472"/>
            <feBlend mode="normal" in="SourceGraphic" in2="effect1_backgroundBlur_2001_2472" result="shape"/>
        </filter>
        <filter id="filter6_b_2001_2472" x="-13.7195" y="28.6086" width="61.7379" height="63.1089" filterUnits="userSpaceOnUse" color-interpolation-filters="sRGB">
            <feFlood flood-opacity="0" result="BackgroundImageFix"/>
            <feGaussianBlur in="BackgroundImageFix" stdDeviation="6.85976"/>
            <feComposite in2="SourceAlpha" operator="in" result="effect1_backgroundBlur_2001_2472"/>
            <feBlend mode="normal" in="SourceGraphic" in2="effect1_backgroundBlur_2001_2472" result="shape"/>
        </filter>
        <filter id="filter7_b_2001_2472" x="-30" y="12.3281" width="94.2988" height="95.6699" filterUnits="userSpaceOnUse" color-interpolation-filters="sRGB">
            <feFlood flood-opacity="0" result="BackgroundImageFix"/>
            <feGaussianBlur in="BackgroundImageFix" stdDeviation="15"/>
            <feComposite in2="SourceAlpha" operator="in" result="effect1_backgroundBlur_2001_2472"/>
            <feBlend mode="normal" in="SourceGraphic" in2="effect1_backgroundBlur_2001_2472" result="shape"/>
        </filter>
        <linearGradient id="paint0_linear_2001_2472" x1="56.3076" y1="39.5604" x2="-10.5005" y2="38.7577" gradientUnits="userSpaceOnUse">
            <stop stop-color="#015FC7"/>
            <stop offset="1" stop-color="#52A4FE"/>
        </linearGradient>
        <linearGradient id="paint1_linear_2001_2472" x1="3.67035" y1="3.29105" x2="41.2914" y2="22.0215" gradientUnits="userSpaceOnUse">
            <stop stop-color="#5A81FF" stop-opacity="0.9"/>
            <stop offset="0.447036" stop-color="#567DFF" stop-opacity="0.955296"/>
            <stop offset="1" stop-color="#4E78FF" stop-opacity="0.9"/>
        </linearGradient>
        <linearGradient id="paint2_linear_2001_2472" x1="4.93599" y1="-1.27395" x2="37.714" y2="17.1279" gradientUnits="userSpaceOnUse">
            <stop offset="0.188941" stop-color="#E7F0FF" stop-opacity="0.523483"/>
            <stop offset="0.526042" stop-color="#88A4FF"/>
            <stop offset="1" stop-color="#B4D2FF" stop-opacity="0.1"/>
        </linearGradient>
        <radialGradient id="paint3_radial_2001_2472" cx="0" cy="0" r="1" gradientUnits="userSpaceOnUse" gradientTransform="translate(5.12583 34.5029) rotate(-52.0718) scale(27.5911 44.7169)">
            <stop stop-color="white"/>
            <stop offset="1" stop-color="white" stop-opacity="0"/>
        </radialGradient>
        <linearGradient id="paint4_linear_2001_2472" x1="44.3715" y1="3.29105" x2="81.9926" y2="22.0215" gradientUnits="userSpaceOnUse">
            <stop stop-color="#5A81FF" stop-opacity="0.9"/>
            <stop offset="0.447036" stop-color="#567DFF" stop-opacity="0.955296"/>
            <stop offset="1" stop-color="#4E78FF" stop-opacity="0.9"/>
        </linearGradient>
        <linearGradient id="paint5_linear_2001_2472" x1="45.6372" y1="-1.27395" x2="78.4152" y2="17.1279" gradientUnits="userSpaceOnUse">
            <stop offset="0.188941" stop-color="#E7F0FF" stop-opacity="0.523483"/>
            <stop offset="0.526042" stop-color="#88A4FF"/>
            <stop offset="1" stop-color="#B4D2FF" stop-opacity="0.1"/>
        </linearGradient>
        <radialGradient id="paint6_radial_2001_2472" cx="0" cy="0" r="1" gradientUnits="userSpaceOnUse" gradientTransform="translate(45.827 34.5029) rotate(-52.0718) scale(27.5911 44.7169)">
            <stop stop-color="white"/>
            <stop offset="1" stop-color="white" stop-opacity="0"/>
        </radialGradient>
        <linearGradient id="paint7_linear_2001_2472" x1="44.3715" y1="45.6192" x2="81.9926" y2="64.3497" gradientUnits="userSpaceOnUse">
            <stop stop-color="#5A81FF" stop-opacity="0.9"/>
            <stop offset="0.447036" stop-color="#567DFF" stop-opacity="0.955296"/>
            <stop offset="1" stop-color="#4E78FF" stop-opacity="0.9"/>
        </linearGradient>
        <linearGradient id="paint8_linear_2001_2472" x1="45.6372" y1="41.0542" x2="78.4152" y2="59.456" gradientUnits="userSpaceOnUse">
            <stop offset="0.188941" stop-color="#E7F0FF" stop-opacity="0.523483"/>
            <stop offset="0.526042" stop-color="#88A4FF"/>
            <stop offset="1" stop-color="#B4D2FF" stop-opacity="0.1"/>
        </linearGradient>
        <radialGradient id="paint9_radial_2001_2472" cx="0" cy="0" r="1" gradientUnits="userSpaceOnUse" gradientTransform="translate(45.827 76.8311) rotate(-52.0718) scale(27.5911 44.7169)">
            <stop stop-color="white"/>
            <stop offset="1" stop-color="white" stop-opacity="0"/>
        </radialGradient>
        <linearGradient id="paint10_linear_2001_2472" x1="3.67035" y1="45.6192" x2="41.2914" y2="64.3497" gradientUnits="userSpaceOnUse">
            <stop stop-color="#5A81FF" stop-opacity="0.9"/>
            <stop offset="0.447036" stop-color="#567DFF" stop-opacity="0.955296"/>
            <stop offset="1" stop-color="#4E78FF" stop-opacity="0.9"/>
        </linearGradient>
        <linearGradient id="paint11_linear_2001_2472" x1="4.93599" y1="41.0542" x2="37.714" y2="59.456" gradientUnits="userSpaceOnUse">
            <stop offset="0.188941" stop-color="#E7F0FF" stop-opacity="0.523483"/>
            <stop offset="0.526042" stop-color="#88A4FF"/>
            <stop offset="1" stop-color="#B4D2FF" stop-opacity="0.1"/>
        </linearGradient>
        <radialGradient id="paint12_radial_2001_2472" cx="0" cy="0" r="1" gradientUnits="userSpaceOnUse" gradientTransform="translate(5.12583 76.8311) rotate(-52.0718) scale(27.5911 44.7169)">
            <stop stop-color="white"/>
            <stop offset="1" stop-color="white" stop-opacity="0"/>
        </radialGradient>
    </defs>
</svg>
