<svg  viewBox="0 0 24 24" fill="none" xmlns="http://www.w3.org/2000/svg">
    <path d="M4 12V17.5" stroke-width="1.4" stroke-linecap="round" stroke-linejoin="round"/>
    <path d="M11.0089 5.49225C9.40778 7.19308 7.63709 9.93814 6.95557 11.0301C6.76364 11.3376 6.6665 11.6915 6.6665 12.054V16.4614C6.6665 17.1125 6.98349 17.7229 7.51615 18.0974L8.28223 18.6361C8.61907 18.8729 9.02081 19 9.43258 19H14.468C15.2406 19 15.9442 18.555 16.2752 17.8568L18.9841 12.1426C19.4559 11.1474 18.7301 10 17.6287 10H12.9715C12.5648 10 12.3282 9.54032 12.5646 9.20938L13.1395 8.4046C13.8538 7.40455 13.5056 6.00288 12.4064 5.45327L12.1229 5.3115C11.7485 5.1243 11.2958 5.18746 11.0089 5.49225Z"  stroke-width="1.4" stroke-linecap="round" stroke-linejoin="round"/>
</svg>
