<svg  viewBox="0 0 24 24" fill="none" xmlns="http://www.w3.org/2000/svg">
    <path fill-rule="evenodd" clip-rule="evenodd" d="M8.20078 9.50196L8.20083 9.50031L8.20157 9.47467C8.20247 9.44994 8.20434 9.41044 8.20822 9.35831C8.21598 9.2538 8.23168 9.09995 8.26323 8.91348C8.3269 8.53726 8.45215 8.04623 8.6942 7.56363C8.93491 7.08368 9.28416 6.62518 9.79364 6.28518C10.2986 5.94818 11.0022 5.6998 12.0008 5.6998C12.9994 5.6998 13.7019 5.94819 14.2055 6.28485C14.7135 6.62451 15.0612 7.08258 15.3004 7.56224C15.541 8.04459 15.6649 8.53544 15.7275 8.91162C15.7585 9.09806 15.7738 9.25189 15.7813 9.35638C15.785 9.40851 15.7868 9.44801 15.7876 9.47274L15.7883 9.49837L15.7883 9.50119L15.7883 9.50066C15.7883 9.50035 15.7883 9.50002 16.4883 9.4998L15.7883 9.50002C15.7883 9.50074 15.7883 9.50145 15.7883 9.50216C15.7896 9.88778 16.1026 10.1999 16.4885 10.1998C16.8751 10.1997 17.1884 9.88618 17.1883 9.49958L16.5185 9.49979C17.1883 9.49957 17.1883 9.49922 17.1883 9.49885L17.1883 9.49801L17.1883 9.49602L17.1883 9.49078L17.1881 9.47542C17.1879 9.46304 17.1875 9.4464 17.1868 9.4258C17.1854 9.38461 17.1828 9.32742 17.1777 9.25651C17.1676 9.11491 17.1477 8.91718 17.1085 8.68173C17.0307 8.21417 16.8738 7.58002 16.5532 6.93737C16.2314 6.29203 15.7376 5.6251 14.9836 5.12101C14.2252 4.61392 13.2452 4.2998 12.0008 4.2998C10.7563 4.2998 9.77585 4.61393 9.01651 5.12068C8.26166 5.62443 7.7663 6.29093 7.44277 6.93598C7.12058 7.57838 6.96198 8.21235 6.88286 8.67987C6.84302 8.91529 6.82258 9.113 6.81206 9.25458C6.8068 9.3255 6.80399 9.38268 6.80249 9.42386C6.80175 9.44447 6.80132 9.4611 6.80109 9.47348L6.80085 9.48885L6.8008 9.49408L6.80079 9.49607L6.80079 9.49691C6.80079 9.49728 6.80078 9.49763 7.47057 9.49971L6.80078 9.49765C6.79959 9.88424 7.11203 10.1986 7.49862 10.1998C7.88501 10.201 8.19924 9.8889 8.20078 9.50259L8.20077 9.50389L8.20077 9.50313L8.20078 9.50259L8.20078 9.50196Z"/>
    <path fill-rule="evenodd" clip-rule="evenodd" d="M3.45138 13.5892C3.41733 14.0022 3.45888 14.5009 3.542 15.4983C3.61357 16.3571 3.64935 16.7865 3.73499 17.1492C4.20482 19.1387 5.83841 20.6418 7.86005 20.9448C8.22854 21 8.65945 21 9.52127 21H14.4797C15.3415 21 15.7724 21 16.1409 20.9448C18.1625 20.6418 19.7961 19.1387 20.266 17.1492C20.3516 16.7866 20.3874 16.3571 20.4589 15.4984L20.459 15.4983L20.459 15.4981C20.5421 14.5009 20.5836 14.0022 20.5496 13.5892C20.3615 11.3076 18.6478 9.44516 16.3897 9.06823C15.9809 9 15.4805 9 14.4797 9H9.52127C8.52045 9 8.02004 9 7.61127 9.06823C5.35314 9.44516 3.63947 11.3076 3.45138 13.5892ZM11.3004 17.0001C11.3004 17.3867 11.6138 17.7001 12.0004 17.7001C12.387 17.7001 12.7004 17.3867 12.7004 17.0001V15.0001C12.7004 14.6135 12.387 14.3001 12.0004 14.3001C11.6138 14.3001 11.3004 14.6135 11.3004 15.0001V17.0001Z"/>
</svg>
