<svg  viewBox="0 0 141 28" fill="none" xmlns="http://www.w3.org/2000/svg">
    <path d="M69.0938 14.509C69.0938 13.3455 70.0541 12.4023 71.2387 12.4023C72.4233 12.4023 73.3836 13.3455 73.3836 14.509V21.531C73.3836 22.6945 72.4233 23.6376 71.2387 23.6376C70.0541 23.6376 69.0938 22.6945 69.0938 21.531V14.509Z" />
    <path d="M69.0938 9.60815C69.0938 8.44385 70.0541 7.5 71.2387 7.5C72.4233 7.5 73.3836 8.44385 73.3836 9.60815V14.1758C73.3836 15.3401 72.4233 16.284 71.2387 16.284C70.0541 16.284 69.0938 15.3401 69.0938 14.1758V9.60815Z" />
    <path d="M140.999 23.2773H138.75V7.44336H140.999V23.2773Z" />
    <path d="M131.628 23.4982C128.32 23.4982 125.895 20.896 125.895 17.4337C125.895 13.9714 128.32 11.3691 131.628 11.3691C134.936 11.3691 137.362 13.9714 137.362 17.4337C137.362 20.896 134.936 23.4982 131.628 23.4982ZM131.628 21.5355C133.547 21.5355 135.069 19.9918 135.069 17.4337C135.069 14.8755 133.547 13.3539 131.628 13.3539C129.71 13.3539 128.21 14.8755 128.21 17.4337C128.21 19.9918 129.71 21.5355 131.628 21.5355Z" />
    <path d="M119.613 23.4982C116.305 23.4982 113.879 20.896 113.879 17.4337C113.879 13.9714 116.305 11.3691 119.613 11.3691C122.921 11.3691 125.346 13.9714 125.346 17.4337C125.346 20.896 122.921 23.4982 119.613 23.4982ZM119.613 21.5355C121.531 21.5355 123.053 19.9918 123.053 17.4337C123.053 14.8755 121.531 13.3539 119.613 13.3539C117.694 13.3539 116.194 14.8755 116.194 17.4337C116.194 19.9918 117.694 21.5355 119.613 21.5355Z" />
    <path d="M105.075 16.6835V23.2773H102.848V7.44336H105.075V13.4638C105.847 12.2068 107.038 11.3688 108.648 11.3688C111.051 11.3688 112.639 12.9125 112.639 15.7132V23.2773H110.412V16.463C110.412 14.4562 109.53 13.3315 107.876 13.3315C106.354 13.3315 105.075 14.6105 105.075 16.6835Z" />
    <path d="M96.0857 23.5203C92.8881 23.5203 90.6387 21.0062 90.6387 17.4337C90.6387 13.9052 92.9322 11.3691 96.0857 11.3691C98.9747 11.3691 101.07 13.2877 101.489 16.331H99.1511C98.9085 14.4565 97.7397 13.3318 96.1078 13.3318C94.1892 13.3318 92.9322 14.9638 92.9322 17.4337C92.9322 19.9257 94.1892 21.5355 96.1078 21.5355C97.7618 21.5355 98.9085 20.4329 99.1731 18.5363H101.489C101.092 21.6237 99.0188 23.5203 96.0857 23.5203Z" />
    <path d="M89.7271 18.647C89.7271 21.4036 87.5218 23.4987 83.6846 23.4987C79.8695 23.4987 77.5539 21.4036 77.3555 18.2501H79.8254C79.9357 20.2569 81.2147 21.558 83.6405 21.558C85.6473 21.558 87.1469 20.6097 87.1469 18.9778C87.1469 17.6546 86.2869 16.9931 84.4565 16.5961L82.163 16.155C79.9357 15.714 77.9068 14.5893 77.9068 11.8988C77.9068 9.23044 80.2444 7.22363 83.5303 7.22363C86.8162 7.22363 89.3081 9.23044 89.5066 12.384H87.0367C86.9044 10.4875 85.5371 9.16429 83.5523 9.16429C81.5014 9.16429 80.3767 10.3772 80.3767 11.7445C80.3767 13.2441 81.6778 13.7733 83.1554 14.0821L85.493 14.5452C88.2055 15.0965 89.7271 16.2874 89.7271 18.647Z" />
    <path d="M65.245 19.7933C65.245 22.0868 63.4587 23.4982 60.3493 23.4982C57.2619 23.4982 55.4315 21.9766 55.2109 19.4625H57.3501C57.4383 20.918 58.6071 21.8222 60.3934 21.8222C61.9591 21.8222 62.9956 21.2709 62.9956 20.1682C62.9956 19.1979 62.4002 18.7789 60.9447 18.4922L59.0481 18.1394C56.887 17.7204 55.674 16.6177 55.674 14.8535C55.674 12.8026 57.4603 11.3691 60.1728 11.3691C62.9735 11.3691 64.8701 12.8687 65.0686 15.2725H62.9294C62.7971 13.8611 61.7606 13.0452 60.1949 13.0452C58.7835 13.0452 57.8352 13.6406 57.8352 14.655C57.8352 15.6033 58.4307 16.0444 59.842 16.309L61.8268 16.6839C64.1424 17.1029 65.245 18.1173 65.245 19.7933Z" />
    <path d="M53.7709 23.2773H51.5215V7.44336H53.7709V23.2773Z" />
    <path d="M44.6963 23.4982C41.3222 23.4982 39.0508 21.0504 39.0508 17.3675C39.0508 13.9052 41.4104 11.3691 44.6302 11.3691C48.1145 11.3691 50.4301 14.1919 50.0331 17.985H41.3222C41.4987 20.3667 42.6895 21.756 44.6522 21.756C46.3062 21.756 47.4529 20.8519 47.8278 19.3302H50.0331C49.4597 21.9325 47.4529 23.4982 44.6963 23.4982ZM44.5861 13.0452C42.7998 13.0452 41.5869 14.3242 41.3443 16.5075H47.6735C47.5632 14.3463 46.3944 13.0452 44.5861 13.0452Z" />
    <path d="M32.4195 27.7765C29.3541 27.7765 27.3694 26.1446 27.237 23.4982H29.3982C29.5305 25.1301 30.5891 26.0122 32.3974 26.0122C34.4042 26.0122 35.4628 24.9317 35.4628 22.9248V20.8078C34.8012 22.2192 33.478 23.0351 31.8902 23.0351C28.9792 23.0351 26.9062 20.6313 26.9062 17.1911C26.9062 13.7067 28.891 11.3691 31.824 11.3691C33.5001 11.3691 34.8232 12.1851 35.6171 13.6626V11.5897H37.6901V22.8807C37.6901 25.9461 35.7274 27.7765 32.4195 27.7765ZM29.1556 17.1911C29.1556 19.6169 30.3465 21.0945 32.2872 21.0945C34.1837 21.0945 35.4628 19.5728 35.4628 17.2573C35.4628 14.8314 34.2058 13.2877 32.2872 13.2877C30.3686 13.2877 29.1556 14.7873 29.1556 17.1911Z" />
    <path d="M18.1062 16.6839V23.2777H15.8789V11.5897H17.9519V13.5303C18.7458 12.2292 20.069 11.3691 21.6788 11.3691C24.0826 11.3691 25.6704 12.9128 25.6704 15.7136V23.2777H23.443V16.4634C23.443 14.4565 22.5609 13.3318 20.907 13.3318C19.3853 13.3318 18.1062 14.6109 18.1062 16.6839Z" />
    <path d="M12.1732 23.2773L10.7397 19.3519H3.90336L2.44787 23.2773H0L6.06454 7.44336H8.73294L14.7534 23.2773H12.1732ZM7.34361 10.0897L4.6311 17.3892H10.012L7.34361 10.0897Z" />
</svg>
