<svg viewBox="0 0 129 20" fill="none" xmlns="http://www.w3.org/2000/svg">
    <path d="M63.0898 7.26929C63.0898 6.20692 63.9667 5.3457 65.0484 5.3457C66.1301 5.3457 67.007 6.20692 67.007 7.26929V13.6813C67.007 14.7436 66.1301 15.6049 65.0484 15.6049C63.9667 15.6049 63.0898 14.7436 63.0898 13.6813V7.26929Z"/>
    <path d="M63.0898 2.79413C63.0898 1.73099 63.9667 0.869141 65.0484 0.869141C66.1301 0.869141 67.007 1.73099 67.007 2.79413V6.96494C67.007 8.02808 66.1301 8.88993 65.0484 8.88993C63.9667 8.88993 63.0898 8.02808 63.0898 6.96494V2.79413Z" />
    <path d="M128.749 15.2757H126.695V0.817383H128.749V15.2757Z" />
    <path d="M120.193 15.4776C117.172 15.4776 114.957 13.1015 114.957 9.93999C114.957 6.7785 117.172 4.40234 120.193 4.40234C123.213 4.40234 125.428 6.7785 125.428 9.93999C125.428 13.1015 123.213 15.4776 120.193 15.4776ZM120.193 13.6854C121.945 13.6854 123.334 12.2759 123.334 9.93999C123.334 7.60411 121.945 6.21466 120.193 6.21466C118.441 6.21466 117.071 7.60411 117.071 9.93999C117.071 12.2759 118.441 13.6854 120.193 13.6854Z" />
    <path d="M109.22 15.4776C106.199 15.4776 103.984 13.1015 103.984 9.93999C103.984 6.7785 106.199 4.40234 109.22 4.40234C112.24 4.40234 114.456 6.7785 114.456 9.93999C114.456 13.1015 112.24 15.4776 109.22 15.4776ZM109.22 13.6854C110.972 13.6854 112.361 12.2759 112.361 9.93999C112.361 7.60411 110.972 6.21466 109.22 6.21466C107.468 6.21466 106.099 7.60411 106.099 9.93999C106.099 12.2759 107.468 13.6854 109.22 13.6854Z" />
    <path d="M95.9459 9.25473V15.2757H93.9121V0.817383H95.9459V6.31475C96.6507 5.16695 97.7381 4.40175 99.2081 4.40175C101.403 4.40175 102.853 5.81133 102.853 8.36871V15.2757H100.819V9.05337C100.819 7.22091 100.014 6.19393 98.5033 6.19393C97.1139 6.19393 95.9459 7.36187 95.9459 9.25473Z" />
    <path d="M87.7375 15.4978C84.8176 15.4978 82.7637 13.2022 82.7637 9.93999C82.7637 6.71809 84.8579 4.40234 87.7375 4.40234C90.3754 4.40234 92.2884 6.15425 92.671 8.93314H90.5365C90.315 7.22151 89.2477 6.19453 87.7576 6.19453C86.0057 6.19453 84.8579 7.68466 84.8579 9.93999C84.8579 12.2155 86.0057 13.6854 87.7576 13.6854C89.2679 13.6854 90.315 12.6786 90.5566 10.9468H92.671C92.3086 13.766 90.4157 15.4978 87.7375 15.4978Z" />
    <path d="M81.9316 11.0481C81.9316 13.5652 79.9179 15.4782 76.414 15.4782C72.9304 15.4782 70.816 13.5652 70.6348 10.6856H72.8901C72.9908 12.5181 74.1587 13.7062 76.3738 13.7062C78.2062 13.7062 79.5755 12.8403 79.5755 11.3501C79.5755 10.1419 78.7902 9.53782 77.1188 9.17536L75.0246 8.77262C72.9908 8.36988 71.1382 7.3429 71.1382 4.8862C71.1382 2.44964 73.2727 0.617188 76.2731 0.617188C79.2735 0.617188 81.549 2.44964 81.7302 5.32922H79.4749C79.354 3.59744 78.1055 2.38923 76.2932 2.38923C74.4205 2.38923 73.3935 3.49676 73.3935 4.74525C73.3935 6.11455 74.5816 6.59784 75.9308 6.87976L78.0653 7.30263C80.5421 7.80605 81.9316 8.89344 81.9316 11.0481Z" />
    <path d="M59.5763 12.0946C59.5763 14.1889 57.9453 15.4776 55.106 15.4776C52.2868 15.4776 50.6154 14.0882 50.4141 11.7926H52.3673C52.4479 13.1216 53.5151 13.9472 55.1462 13.9472C56.5759 13.9472 57.5224 13.4438 57.5224 12.437C57.5224 11.5509 56.9787 11.1683 55.6497 10.9066L53.9179 10.5844C51.9445 10.2018 50.8369 9.19492 50.8369 7.58397C50.8369 5.71124 52.468 4.40234 54.9449 4.40234C57.5022 4.40234 59.234 5.77165 59.4152 7.96657H57.462C57.3411 6.67781 56.3947 5.93275 54.965 5.93275C53.6762 5.93275 52.8103 6.47644 52.8103 7.40274C52.8103 8.26862 53.354 8.67136 54.6428 8.91301L56.4551 9.25533C58.5695 9.63793 59.5763 10.5642 59.5763 12.0946Z" />
    <path d="M49.0989 15.2757H47.0449V0.817383H49.0989V15.2757Z" />
    <path d="M40.8132 15.4776C37.7323 15.4776 35.6582 13.2424 35.6582 9.87958C35.6582 6.71809 37.8128 4.40234 40.7528 4.40234C43.9345 4.40234 46.0488 6.97986 45.6864 10.4434H37.7323C37.8934 12.6182 38.9808 13.8868 40.773 13.8868C42.2832 13.8868 43.3304 13.0612 43.6727 11.6718H45.6864C45.1628 14.0479 43.3304 15.4776 40.8132 15.4776ZM40.7126 5.93275C39.0815 5.93275 37.9739 7.10068 37.7524 9.09424H43.5317C43.431 7.12082 42.3638 5.93275 40.7126 5.93275Z" />
    <path d="M29.6026 19.3842C26.8036 19.3842 24.9912 17.8941 24.8704 15.4776H26.8438C26.9646 16.9678 27.9312 17.7732 29.5824 17.7732C31.4149 17.7732 32.3815 16.7865 32.3815 14.9541V13.0209C31.7774 14.3097 30.5692 15.0548 29.1193 15.0548C26.4612 15.0548 24.5684 12.8598 24.5684 9.71848C24.5684 6.53685 26.3807 4.40234 29.0589 4.40234C30.5893 4.40234 31.7975 5.14741 32.5224 6.49658V4.60371H34.4153V14.9138C34.4153 17.7128 32.6231 19.3842 29.6026 19.3842ZM26.6223 9.71848C26.6223 11.9335 27.7097 13.2827 29.4818 13.2827C31.2135 13.2827 32.3815 11.8933 32.3815 9.77889C32.3815 7.56383 31.2337 6.15425 29.4818 6.15425C27.7299 6.15425 26.6223 7.52356 26.6223 9.71848Z" />
    <path d="M16.5319 9.25533V15.2763H14.498V4.60371H16.3909V6.37576C17.1158 5.18768 18.3241 4.40234 19.794 4.40234C21.989 4.40234 23.4388 5.81192 23.4388 8.36931V15.2763H21.405V9.05396C21.405 7.22151 20.5995 6.19453 19.0893 6.19453C17.6998 6.19453 16.5319 7.36246 16.5319 9.25533Z" />
    <path d="M11.1156 15.2757L9.80666 11.6913H3.56423L2.23519 15.2757H0L5.53764 0.817383H7.9742L13.4716 15.2757H11.1156ZM6.70558 3.23381L4.22874 9.89911H9.14214L6.70558 3.23381Z" />
</svg>
