<svg  viewBox="0 0 48 48" fill="none" xmlns="http://www.w3.org/2000/svg">
    <path d="M26.8404 17.663C28.7568 18.8424 30.1153 19.6798 31.0946 20.3983C32.0768 21.1189 32.5097 21.6041 32.7209 22.0134C33.3638 23.2598 33.3638 24.7402 32.7209 25.9866C32.5097 26.3959 32.0768 26.8811 31.0946 27.6017C30.1153 28.3202 28.7568 29.1576 26.8404 30.337C24.7584 31.6182 23.2751 32.5296 22.1012 33.126C20.9174 33.7275 20.247 33.9003 19.7742 33.8938C18.3116 33.8738 16.9577 33.1173 16.1742 31.8821C15.9208 31.4828 15.7166 30.8214 15.6085 29.4979C15.5012 28.1855 15.5 26.4446 15.5 24C15.5 21.5554 15.5012 19.8144 15.6085 18.5021C15.7166 17.1786 15.9209 16.5172 16.1742 16.1179C16.9577 14.8827 18.3116 14.1262 19.7742 14.1062C20.247 14.0997 20.9174 14.2725 22.1012 14.874C23.2751 15.4704 24.7584 16.3818 26.8404 17.663Z"  stroke-width="3"/>
</svg>
