<svg  viewBox="0 0 24 24" fill="none" xmlns="http://www.w3.org/2000/svg">
    <g clip-path="url(#clip0_191_1641)">
        <path d="M12.5215 17.3183C12.2015 17.1229 11.799 17.1229 11.479 17.3183L8.17392 19.3369C7.41483 19.8005 6.47363 19.1167 6.67998 18.2515L7.57853 14.4841C7.66553 14.1194 7.54115 13.7366 7.25637 13.4927L4.31635 10.9742C3.64079 10.3956 4.00035 9.28901 4.88704 9.21798L8.74633 8.90878C9.12015 8.87883 9.44579 8.64224 9.5898 8.29597L11.0769 4.72019C11.4185 3.89885 12.582 3.89885 12.9236 4.72019L14.4107 8.29597C14.5547 8.64224 14.8803 8.87883 15.2542 8.90878L19.1141 9.21797C20.0008 9.28901 20.3604 10.3957 19.6847 10.9743L16.7442 13.4927C16.4594 13.7366 16.3349 14.1194 16.422 14.4842L17.3205 18.2515C17.5268 19.1167 16.5856 19.8005 15.8265 19.3369L12.5215 17.3183Z" />
    </g>
    <defs>
        <clipPath id="clip0_191_1641">
            <rect width="24" height="24" fill="white"/>
        </clipPath>
    </defs>
</svg>
