<svg  viewBox="0 0 33 32" fill="none" xmlns="http://www.w3.org/2000/svg">
    <path fill-rule="evenodd" clip-rule="evenodd" d="M3.16669 15.3327C3.16669 14.6085 3.16669 13.9445 3.17048 13.333L29.8296 13.333C29.8334 13.9445 29.8334 14.6085 29.8334 15.3327C29.8334 19.6874 29.8334 21.8647 29.0083 23.5377C28.2294 25.1171 26.9511 26.3954 25.3717 27.1743C23.6987 27.9993 21.5214 27.9993 17.1667 27.9993H15.8333C11.4787 27.9993 9.30135 27.9993 7.62838 27.1743C6.04892 26.3954 4.77061 25.1171 3.9917 23.5377C3.16669 21.8647 3.16669 19.6874 3.16669 15.3327ZM29.7972 11.4663L3.20281 11.4663C3.26918 9.50582 3.45747 8.21102 3.9917 7.12771C4.77061 5.54825 6.04892 4.26994 7.62838 3.49103C9.30135 2.66602 11.4787 2.66602 15.8334 2.66602H17.1667C21.5214 2.66602 23.6987 2.66602 25.3717 3.49103C26.9511 4.26994 28.2294 5.54825 29.0083 7.12771C29.5426 8.21102 29.7309 9.50582 29.7972 11.4663ZM20.5 7.06569C19.9846 7.06569 19.5667 7.48356 19.5667 7.99902C19.5667 8.51449 19.9846 8.93236 20.5 8.93236H24.5C25.0155 8.93236 25.4334 8.51449 25.4334 7.99902C25.4334 7.48356 25.0155 7.06569 24.5 7.06569H20.5ZM12.5 7.99876C12.5 8.51423 12.0821 8.9321 11.5667 8.9321C11.0512 8.9321 10.6333 8.51423 10.6333 7.99876C10.6333 7.4833 11.0512 7.06543 11.5667 7.06543C12.0821 7.06543 12.5 7.4833 12.5 7.99876ZM8.89998 8.9321C9.41544 8.9321 9.83331 8.51423 9.83331 7.99876C9.83331 7.4833 9.41544 7.06543 8.89998 7.06543C8.38451 7.06543 7.96664 7.4833 7.96664 7.99876C7.96664 8.51423 8.38451 8.9321 8.89998 8.9321Z" fill="#222628"/>
</svg>
