<svg viewBox="0 0 33 32" fill="none" xmlns="http://www.w3.org/2000/svg">
    <path fill-rule="evenodd" clip-rule="evenodd" d="M3.16663 18.6676C3.16663 17.3532 3.16663 16.3872 3.20721 15.6179C3.26249 15.6263 3.32968 15.6364 3.408 15.6481C3.65446 15.6848 4.01125 15.7372 4.45395 15.8C5.33912 15.9257 6.56893 16.0932 7.94776 16.2608C8.25777 16.2985 8.57594 16.3363 8.89996 16.3736V17.3343C8.89996 17.8498 9.31783 18.2676 9.83329 18.2676C10.3488 18.2676 10.7666 17.8498 10.7666 17.3343V16.5757C12.7865 16.7792 14.8615 16.9343 16.5 16.9343C18.1384 16.9343 20.2134 16.7792 22.2333 16.5757V17.3343C22.2333 17.8498 22.6512 18.2676 23.1666 18.2676C23.6821 18.2676 24.1 17.8498 24.1 17.3343V16.3736C24.424 16.3363 24.7421 16.2985 25.0522 16.2608C26.431 16.0932 27.6608 15.9257 28.546 15.8C28.9887 15.7372 29.3455 15.6848 29.5919 15.6481C29.6702 15.6364 29.7374 15.6263 29.7927 15.6179C29.8333 16.3872 29.8333 17.3532 29.8333 18.6676C29.8333 21.1476 29.8333 22.3875 29.5607 23.4049C28.821 26.1656 26.6646 28.322 23.9038 29.0617C22.8865 29.3343 21.6465 29.3343 19.1666 29.3343H13.8333C11.3534 29.3343 10.1134 29.3343 9.09607 29.0617C6.33534 28.322 4.17896 26.1656 3.43922 23.4049C3.16663 22.3875 3.16663 21.1476 3.16663 18.6676ZM29.5165 13.7718C29.4619 13.7801 29.395 13.7901 29.3167 13.8018C29.074 13.838 28.7216 13.8897 28.2836 13.9519C27.4075 14.0763 26.1904 14.2421 24.8269 14.4078C24.5884 14.4368 24.3457 14.4657 24.1 14.4944V13.3343C24.1 12.8188 23.6821 12.401 23.1666 12.401C22.6512 12.401 22.2333 12.8188 22.2333 13.3343V14.6994C20.1894 14.9087 18.1058 15.0676 16.5 15.0676C14.8941 15.0676 12.8105 14.9087 10.7666 14.6994V13.3343C10.7666 12.8188 10.3488 12.401 9.83329 12.401C9.31783 12.401 8.89996 12.8188 8.89996 13.3343V14.4944C8.6542 14.4657 8.41154 14.4368 8.173 14.4078C6.80947 14.2421 5.5924 14.0763 4.71628 13.9519C4.27834 13.8897 3.92588 13.838 3.68326 13.8018C3.60493 13.7901 3.53806 13.7801 3.48346 13.7718C4.26212 11.0873 6.38843 8.99908 9.09607 8.27357C10.1134 8.00098 11.3534 8.00098 13.8333 8.00098H19.1666C21.6465 8.00098 22.8865 8.00098 23.9038 8.27357C26.6115 8.99908 28.7378 11.0873 29.5165 13.7718ZM18.7666 22.001C18.7666 22.5164 18.3488 22.9343 17.8333 22.9343H16.5H15.1666C14.6512 22.9343 14.2333 22.5164 14.2333 22.001C14.2333 21.4855 14.6512 21.0676 15.1666 21.0676H16.5H17.8333C18.3488 21.0676 18.7666 21.4855 18.7666 22.001Z" fill="#222628"/>
    <path fill-rule="evenodd" clip-rule="evenodd" d="M12.7666 8.66775C12.7666 8.66902 12.7666 8.67029 12.7666 8.67156C12.7666 8.67197 12.7665 8.67218 12.7665 8.67218L12.7666 8.6718L12.7666 8.67102C12.7666 8.67123 12.7666 8.67141 12.7666 8.67156C12.764 9.18483 12.3471 9.60013 11.8332 9.60013C11.3178 9.60012 10.8999 9.18225 10.8999 8.66679L11.8332 8.66679C10.8999 8.66679 10.8999 8.66627 10.8999 8.66574L10.8999 8.66459L10.8999 8.66199L10.9 8.65559L10.9002 8.63809C10.9004 8.62436 10.9009 8.60652 10.9017 8.58487C10.9032 8.54158 10.9062 8.48282 10.9119 8.41076C10.9231 8.26697 10.945 8.06833 10.988 7.83274C11.0731 7.36556 11.2451 6.73046 11.5977 6.08563C11.9532 5.43562 12.4962 4.76964 13.3162 4.26984C14.1382 3.76881 15.1861 3.4668 16.4999 3.4668C17.8137 3.4668 18.8616 3.76881 19.6836 4.26984C20.5036 4.76964 21.0466 5.43562 21.4021 6.08563C21.7548 6.73046 21.9267 7.36556 22.0119 7.83274C22.0548 8.06833 22.0767 8.26697 22.088 8.41076C22.0936 8.48282 22.0966 8.54158 22.0981 8.58487C22.0989 8.60652 22.0994 8.62435 22.0996 8.63809L22.0999 8.65559L22.0999 8.66199L22.0999 8.66459L22.0999 8.66574C22.0999 8.66627 22.0999 8.66679 21.1666 8.66679L22.0999 8.66679C22.0999 9.18225 21.682 9.60012 21.1666 9.60013C20.6527 9.60013 20.2358 9.18486 20.2333 8.6716C20.2332 8.67048 20.2332 8.66936 20.2332 8.66824C20.2332 8.66807 20.2332 8.66791 20.2332 8.66774C20.2332 8.66774 20.2332 8.66774 20.2332 8.66775L20.2332 8.66824L20.2332 8.6686L20.2332 8.67004L20.2333 8.67181C20.2333 8.67237 20.2333 8.67229 20.2333 8.6716C20.2332 8.67144 20.2332 8.67125 20.2332 8.67102L20.2327 8.65289C20.232 8.63367 20.2304 8.60077 20.227 8.55616C20.22 8.46661 20.2054 8.33192 20.1755 8.16751C20.1148 7.8347 19.995 7.40313 19.7644 6.98129C19.5365 6.56464 19.2046 6.16395 18.712 5.86375C18.2215 5.56478 17.5195 5.33346 16.4999 5.33346C15.4804 5.33346 14.7783 5.56478 14.2878 5.86375C13.7953 6.16395 13.4633 6.56464 13.2355 6.98129C13.0048 7.40312 12.885 7.83469 12.8244 8.16751C12.7944 8.33192 12.7798 8.46661 12.7728 8.55616C12.7694 8.60077 12.7678 8.63367 12.7671 8.65288L12.7666 8.67102L12.7666 8.67004L12.7666 8.6686L12.7666 8.66775Z" fill="#222628"/>
</svg>
